<?xml version="1.0" encoding="UTF-8" standalone="no"?>
<!DOCTYPE svg PUBLIC "-//W3C//DTD SVG 1.1//EN" "http://www.w3.org/Graphics/SVG/1.1/DTD/svg11.dtd">
<svg width="100%" height="100%" viewBox="0 0 837 257" version="1.1" xmlns="http://www.w3.org/2000/svg" xmlns:xlink="http://www.w3.org/1999/xlink" xml:space="preserve" xmlns:serif="http://www.serif.com/" style="fill-rule:evenodd;clip-rule:evenodd;stroke-linejoin:round;stroke-miterlimit:2;">
    <g transform="matrix(1,0,0,1,-1557.23,-2981.21)">
        <g transform="matrix(1,0,0,1,1897.05,2905.43)">
            <g transform="matrix(1,0,0,1,-200.021,46.5729)">
                <path d="M-11.483,285.858C-82.307,285.858 -139.807,228.358 -139.807,157.535C-139.807,86.711 -82.307,29.211 -11.483,29.211L679.099,29.211C683.797,29.211 688.304,31.077 691.626,34.4C694.949,37.722 696.815,42.229 696.815,46.927L696.815,268.142C696.815,272.84 694.949,277.347 691.626,280.669C688.304,283.992 683.797,285.858 679.099,285.858L-11.483,285.858ZM-79.044,203.687L-79.042,203.687C-78.792,203.188 -79.207,202.505 -79.937,202.175C-80.665,201.833 -81.452,201.977 -81.664,202.486C-81.9,202.988 -81.494,203.664 -80.764,203.993C-80.053,204.335 -79.268,204.187 -79.044,203.687ZM170.131,73.546C166.63,73.546 163.789,76.409 163.789,79.953C163.789,83.491 166.63,86.362 170.131,86.362C173.635,86.362 176.475,83.491 176.475,79.953C176.475,76.409 173.634,73.546 170.131,73.546ZM312.042,88.157C306.496,88.157 302.724,90.63 302.724,90.63L302.724,73.195L302.724,73.19C302.724,72.744 302.359,72.377 301.913,72.374L292.048,72.374C291.6,72.374 291.231,72.743 291.231,73.19L291.231,73.195L291.231,124.683L291.231,124.687C291.231,125.135 291.6,125.504 292.048,125.504L298.893,125.504C299.203,125.504 299.435,125.346 299.607,125.066C299.775,124.789 300.022,122.692 300.022,122.692C300.022,122.692 304.055,126.513 311.694,126.513C320.659,126.513 325.803,121.967 325.803,106.098C325.803,90.229 317.589,88.155 312.04,88.155L312.042,88.157ZM308.188,117.164C304.803,117.062 302.505,115.525 302.505,115.525L302.505,99.22C302.505,99.22 304.772,97.832 307.551,97.58C311.067,97.265 314.455,98.328 314.455,106.715C314.455,115.561 312.928,117.306 308.19,117.163L308.188,117.164ZM616.863,167.362L637.624,222.091C636.742,225.23 635.473,227.804 633.815,229.814C632.158,231.86 629.601,232.882 626.145,232.882C624.276,232.882 622.178,232.653 619.85,232.195L621.173,243.832C623.924,244.432 626.727,244.731 629.584,244.731C632.405,244.731 634.926,244.432 637.148,243.832C639.405,243.233 641.291,242.386 642.808,241.293C644.359,240.235 645.717,238.842 646.881,237.114C648.08,235.386 649.332,232.882 650.637,229.603L654.181,219.817L674.017,165.756L658.624,165.756L645.506,205.64L632.07,165.756L616.253,165.756L616.82,167.25C613.702,165.407 610.463,164.486 607.102,164.486C604.704,164.486 602.553,165.086 600.649,166.285C598.78,167.484 596.664,169.97 594.301,173.743L594.301,165.756L580.495,165.756L580.495,221.933L595.359,221.933L595.359,204.582C595.359,195.026 595.765,188.749 596.576,185.751C597.422,182.754 598.568,180.691 600.014,179.562C601.46,178.398 603.223,177.816 605.304,177.816C607.455,177.816 609.782,178.628 612.286,180.25L616.863,167.362ZM-49.95,223.403C-49.95,222.583 -50.925,221.919 -52.117,221.943C-53.314,221.961 -54.256,222.64 -54.256,223.474C-54.242,224.289 -53.272,224.958 -52.075,224.93C-50.883,224.916 -49.919,224.228 -49.95,223.403ZM285.356,89.313L275.591,89.313C275.145,89.316 274.781,89.684 274.781,90.129L274.781,90.136L274.781,115.381C274.781,115.381 272.299,117.194 268.78,117.194C265.261,117.194 264.327,115.598 264.327,112.151L264.327,90.136L264.327,90.129C264.327,89.683 263.961,89.315 263.515,89.313L253.606,89.313C253.158,89.316 252.791,89.687 252.793,90.136L252.793,113.817C252.793,124.056 258.5,126.56 266.35,126.56C272.79,126.56 277.983,123.001 277.983,123.001C277.983,123.001 278.228,124.879 278.342,125.099C278.457,125.321 278.746,125.545 279.061,125.545L285.364,125.517C285.813,125.515 286.181,125.146 286.181,124.697L286.181,124.694L286.176,90.131C286.174,89.683 285.807,89.315 285.359,89.311L285.356,89.313ZM117.857,221.933L133.514,221.933L133.514,189.56L136.688,189.56C140.285,189.56 142.912,189.859 144.57,190.459C146.227,191.023 147.796,192.099 149.278,193.686C150.759,195.237 153.509,199.028 157.529,205.059L168.849,221.933L187.575,221.933L178.106,206.804C174.368,200.774 171.389,196.577 169.167,194.215C166.98,191.852 164.195,189.683 160.809,187.708C167.615,186.721 172.729,184.34 176.149,180.567C179.57,176.759 181.28,171.945 181.28,166.126C181.28,161.542 180.152,157.469 177.895,153.907C175.638,150.345 172.623,147.877 168.849,146.501C165.111,145.091 159.099,144.386 150.812,144.386L117.857,144.386L117.857,221.933ZM133.514,177.182L133.514,157.504L145.733,157.504C152.081,157.504 155.89,157.592 157.159,157.768C159.698,158.192 161.655,159.214 163.031,160.837C164.441,162.423 165.147,164.522 165.147,167.131C165.147,169.459 164.618,171.398 163.56,172.95C162.502,174.502 161.038,175.595 159.169,176.23C157.3,176.864 152.61,177.182 145.099,177.182L133.514,177.182ZM-16.78,59.784C-72.125,59.784 -117.009,104.655 -117.009,160.013C-117.009,204.295 -88.291,241.866 -48.466,255.117C-43.457,256.046 -41.617,252.943 -41.617,250.295C-41.617,247.906 -41.712,240.009 -41.754,231.637C-69.64,237.698 -75.522,219.811 -75.522,219.811C-80.081,208.225 -86.651,205.143 -86.651,205.143C-95.745,198.924 -85.968,199.051 -85.968,199.051C-75.902,199.758 -70.601,209.381 -70.601,209.381C-61.663,224.704 -47.153,220.272 -41.436,217.711C-40.534,211.233 -37.937,206.809 -35.07,204.307C-57.333,201.774 -80.736,193.178 -80.736,154.773C-80.736,143.83 -76.82,134.89 -70.408,127.87C-71.449,125.344 -74.879,115.148 -69.437,101.343C-69.437,101.343 -61.022,98.653 -41.874,111.621C-33.876,109.4 -25.301,108.286 -16.784,108.248C-8.266,108.288 0.314,109.402 8.324,111.621C27.453,98.655 35.859,101.345 35.859,101.345C41.315,115.15 37.885,125.344 36.844,127.872C43.27,134.888 47.157,143.83 47.157,154.776C47.157,193.27 23.71,201.746 1.391,204.224C4.986,207.334 8.19,213.436 8.19,222.788C8.19,236.198 8.077,246.99 8.077,250.29C8.077,252.952 9.881,256.081 14.96,255.096C54.764,241.828 83.444,204.271 83.444,160.003C83.449,104.658 38.575,59.784 -16.78,59.784ZM-58.148,222.802L-58.15,222.802C-57.917,222.001 -58.659,221.092 -59.79,220.753C-60.933,220.397 -62.068,220.767 -62.304,221.559C-62.53,222.35 -61.79,223.269 -60.655,223.613C-59.519,223.945 -58.393,223.589 -58.148,222.802ZM204.186,116.972C203.757,116.972 202.656,117.146 201.525,117.146C197.899,117.146 196.67,115.461 196.67,113.28L196.67,98.802L204.051,98.802C204.499,98.802 204.867,98.433 204.867,97.985L204.867,97.979L204.867,90.049L204.867,90.046C204.867,89.598 204.499,89.229 204.051,89.229L196.67,89.229L196.658,79.481C196.658,79.11 196.469,78.925 196.041,78.925L185.982,78.925C185.593,78.925 185.383,79.098 185.383,79.472L185.383,89.548C185.383,89.548 180.342,90.764 180.002,90.862C179.655,90.964 179.414,91.284 179.414,91.646L179.414,97.977L179.414,97.982C179.414,98.428 179.78,98.796 180.226,98.799L185.383,98.799L185.383,114.031C185.383,125.347 193.319,126.458 198.675,126.458C201.12,126.458 204.048,125.674 204.531,125.494C204.825,125.385 204.993,125.083 204.993,124.754L205,117.79C204.993,117.344 204.629,116.979 204.183,116.97L204.186,116.972ZM-65.621,219.566L-65.621,219.563C-65.034,218.96 -65.298,217.81 -66.17,217.005C-67.032,216.185 -68.208,216.015 -68.766,216.621C-69.315,217.226 -69.072,218.373 -68.196,219.182C-67.341,220.008 -66.17,220.171 -65.621,219.566ZM-74.985,208.22L-74.988,208.217C-74.488,207.768 -74.618,206.842 -75.277,206.135C-75.93,205.435 -76.837,205.228 -77.327,205.671C-77.812,206.118 -77.69,207.054 -77.035,207.753C-76.399,208.455 -75.463,208.66 -74.985,208.22ZM-71.035,213.987L-71.035,213.989C-70.406,213.556 -70.406,212.484 -71.023,211.577C-71.649,210.693 -72.639,210.307 -73.261,210.736C-73.89,211.167 -73.89,212.234 -73.273,213.122C-72.653,214.015 -71.647,214.416 -71.035,213.987ZM174.958,89.236L165.15,89.236C164.7,89.236 164.298,89.7 164.298,90.15L164.298,124.201C164.298,125.202 164.922,125.499 165.728,125.499L174.563,125.499C175.534,125.499 175.771,125.022 175.771,124.185L175.771,90.057L175.771,90.054C175.771,89.607 175.405,89.239 174.958,89.238L174.958,89.236ZM-42.317,222.107L-42.317,222.105C-42.469,221.287 -43.529,220.803 -44.713,221.01C-45.874,221.226 -46.715,222.051 -46.574,222.875C-46.423,223.676 -45.349,224.176 -44.185,223.959C-43.001,223.74 -42.177,222.912 -42.317,222.107ZM247.151,72.376L237.311,72.376C236.864,72.377 236.498,72.745 236.498,73.192L236.498,73.197L236.501,92.211L221.164,92.211L221.164,73.197L221.164,73.192C221.164,72.746 220.799,72.378 220.353,72.376L210.514,72.376C210.067,72.377 209.701,72.745 209.701,73.192L209.701,73.197L209.701,124.684C209.701,125.137 210.067,125.506 210.514,125.506L220.353,125.506C220.799,125.503 221.164,125.135 221.164,124.689L221.164,124.683L221.164,102.66L236.501,102.66L236.475,124.683C236.475,125.137 236.841,125.506 237.291,125.506L247.151,125.506C247.597,125.503 247.963,125.135 247.963,124.689L247.963,124.683L247.963,73.195C247.963,73.193 247.963,73.19 247.963,73.187C247.963,72.742 247.596,72.376 247.151,72.376ZM157.908,94.407L140.436,94.407C139.988,94.407 139.619,94.776 139.619,95.224L139.619,103.768C139.619,104.216 139.988,104.584 140.436,104.584L147.25,104.584L147.25,115.198C147.25,115.198 145.72,115.721 141.486,115.721C136.495,115.721 129.521,113.898 129.521,98.562C129.521,83.223 136.784,81.203 143.604,81.203C149.505,81.203 152.046,82.242 153.666,82.743C154.172,82.897 154.646,82.391 154.646,81.94L156.594,73.685C156.6,73.435 156.483,73.196 156.28,73.048C155.622,72.578 151.615,70.338 141.489,70.338C129.823,70.338 117.857,75.299 117.857,99.159C117.857,123.017 131.557,126.572 143.102,126.572C152.662,126.572 158.46,122.486 158.46,122.486C158.699,122.356 158.725,122.021 158.725,121.866L158.725,95.222C158.725,94.774 158.356,94.406 157.908,94.406L157.908,94.407ZM318.919,193.051C318.919,199.504 320.135,204.988 322.569,209.502C325.002,213.981 328.546,217.384 333.201,219.711C337.891,222.039 342.811,223.202 347.959,223.202C356.282,223.202 363.176,220.416 368.642,214.844C374.143,209.237 376.894,202.184 376.894,193.686C376.894,185.257 374.179,178.293 368.748,172.791C363.317,167.255 356.352,164.486 347.853,164.486C342.352,164.486 337.362,165.703 332.883,168.136C328.44,170.57 325.002,174.096 322.569,178.716C320.135,183.335 318.919,188.114 318.919,193.051ZM334.153,193.844C334.153,188.272 335.475,184.005 338.12,181.043C340.765,178.081 344.027,176.6 347.906,176.6C351.785,176.6 355.03,178.081 357.639,181.043C360.284,184.005 361.607,188.237 361.607,193.739C361.607,199.381 360.284,203.683 357.639,206.645C355.03,209.608 351.785,211.089 347.906,211.089C344.027,211.089 340.765,209.608 338.12,206.645C335.475,203.683 334.153,199.416 334.153,193.844ZM255.759,165.756L255.759,243.303L270.624,243.303L270.624,215.003C273.409,218.001 276.054,220.117 278.558,221.351C281.097,222.585 283.918,223.202 287.022,223.202C293.546,223.202 299.1,220.61 303.684,215.426C308.269,210.207 310.561,202.907 310.561,193.527C310.561,184.393 308.286,177.27 303.737,172.157C299.188,167.043 293.651,164.486 287.127,164.486C283.389,164.486 279.986,165.368 276.918,167.131C273.85,168.895 271.417,171.187 269.619,174.008L269.619,165.756L255.759,165.756ZM270.465,192.892C270.465,187.391 271.664,183.247 274.062,180.461C276.46,177.64 279.475,176.23 283.107,176.23C286.598,176.23 289.525,177.658 291.888,180.514C294.251,183.371 295.432,187.744 295.432,193.633C295.432,199.945 294.286,204.494 291.994,207.28C289.702,210.031 286.828,211.406 283.372,211.406C279.775,211.406 276.724,209.907 274.221,206.91C271.717,203.877 270.465,199.205 270.465,192.892ZM504.64,165.756L494.484,165.756L494.484,145.92L479.567,154.595L479.567,165.756L472.744,165.756L472.744,177.605L479.567,177.605L479.567,202.096C479.567,207.351 479.726,210.842 480.043,212.57C480.431,215.003 481.119,216.943 482.106,218.389C483.129,219.799 484.716,220.963 486.867,221.88C489.018,222.761 491.434,223.202 494.114,223.202C498.487,223.202 502.401,222.462 505.857,220.981L504.588,209.449C501.978,210.401 499.986,210.877 498.61,210.877C497.623,210.877 496.776,210.63 496.071,210.137C495.401,209.643 494.96,209.026 494.749,208.285C494.572,207.509 494.484,204.829 494.484,200.245L494.484,177.605L504.64,177.605L504.64,165.756ZM228.465,204.053C227.653,206.875 226.454,208.92 224.868,210.19C223.281,211.459 221.323,212.094 218.996,212.094C215.575,212.094 212.719,210.877 210.427,208.444C208.134,205.975 206.935,202.537 206.83,198.129L244.069,198.129C244.281,186.738 241.971,178.293 237.14,172.791C232.308,167.255 225.714,164.486 217.356,164.486C209.915,164.486 203.762,167.131 198.895,172.421C194.028,177.675 191.595,184.958 191.595,194.268C191.595,202.061 193.447,208.514 197.149,213.628C201.84,220.011 209.069,223.202 218.837,223.202C225.009,223.202 230.14,221.792 234.23,218.97C238.356,216.114 241.371,211.97 243.276,206.54L228.465,204.053ZM229.311,189.031L207.094,189.031C207.059,184.975 208.099,181.766 210.215,179.403C212.331,177.041 215.011,175.859 218.255,175.859C221.288,175.859 223.862,176.988 225.978,179.245C228.094,181.466 229.205,184.728 229.311,189.031ZM511.517,193.051C511.517,199.504 512.734,204.988 515.167,209.502C517.6,213.981 521.144,217.384 525.799,219.711C530.49,222.039 535.409,223.202 540.558,223.202C548.88,223.202 555.774,220.416 561.24,214.844C566.742,209.237 569.492,202.184 569.492,193.686C569.492,185.257 566.777,178.293 561.346,172.791C555.915,167.255 548.951,164.486 540.452,164.486C534.951,164.486 529.961,165.703 525.482,168.136C521.039,170.57 517.6,174.096 515.167,178.716C512.734,183.335 511.517,188.114 511.517,193.051ZM526.751,193.844C526.751,188.272 528.074,184.005 530.719,181.043C533.364,178.081 536.626,176.6 540.505,176.6C544.384,176.6 547.628,178.081 550.238,181.043C552.883,184.005 554.205,188.237 554.205,193.739C554.205,199.381 552.883,203.683 550.238,206.645C547.628,209.608 544.384,211.089 540.505,211.089C536.626,211.089 533.364,209.608 530.719,206.645C528.074,203.683 526.751,199.416 526.751,193.844ZM383.294,205.905C384.67,211.23 387.579,215.444 392.022,218.547C396.501,221.651 402.567,223.202 410.219,223.202C418.647,223.202 425.013,221.351 429.315,217.648C433.617,213.945 435.768,209.52 435.768,204.371C435.768,199.645 434.217,195.96 431.113,193.315C427.975,190.706 422.438,188.502 414.504,186.703C406.604,184.905 401.985,183.512 400.645,182.524C399.657,181.784 399.164,180.885 399.164,179.827C399.164,178.592 399.728,177.587 400.856,176.811C402.549,175.718 405.353,175.172 409.267,175.172C412.37,175.172 414.751,175.754 416.408,176.917C418.101,178.081 419.247,179.756 419.846,181.942L433.864,179.351C432.454,174.449 429.879,170.746 426.141,168.242C422.403,165.738 416.69,164.486 409.002,164.486C400.927,164.486 394.967,166.144 391.123,169.459C387.279,172.774 385.357,176.864 385.357,181.731C385.357,187.126 387.579,191.341 392.022,194.373C395.232,196.56 402.831,198.975 414.821,201.62C417.395,202.22 419.053,202.872 419.793,203.577C420.499,204.318 420.851,205.252 420.851,206.381C420.851,208.038 420.199,209.361 418.894,210.348C416.955,211.759 414.063,212.464 410.219,212.464C406.728,212.464 404.012,211.724 402.073,210.242C400.133,208.726 398.846,206.522 398.211,203.63L383.294,205.905ZM448.781,221.933L463.645,221.933L463.645,165.756L448.781,165.756L448.781,221.933ZM448.781,158.139L463.645,158.139L463.645,144.386L448.781,144.386L448.781,158.139Z"/>
            </g>
        </g>
    </g>
</svg>
