<?xml version="1.0" encoding="UTF-8" standalone="no"?><!DOCTYPE svg PUBLIC "-//W3C//DTD SVG 1.1//EN" "http://www.w3.org/Graphics/SVG/1.1/DTD/svg11.dtd"><svg width="100%" height="100%" viewBox="0 0 294 414" version="1.1" xmlns="http://www.w3.org/2000/svg" xmlns:xlink="http://www.w3.org/1999/xlink" xml:space="preserve" xmlns:serif="http://www.serif.com/" style="fill-rule:evenodd;clip-rule:evenodd;stroke-linecap:round;stroke-linejoin:round;stroke-miterlimit:1.5;"><g id="designer"><g id="designer1" serif:id="designer"><path d="M285.822,27.166c0,-14.993 -12.172,-27.166 -27.167,-27.166l-223.854,0c-14.994,0 -27.169,12.173 -27.169,27.166l0,223.855c0,14.994 12.175,27.169 27.169,27.169l223.855,0c14.994,0 27.166,-12.175 27.166,-27.169l0,-223.855Z" style="fill:#134881;fill-rule:nonzero;"/><path d="M265.45,247.032c-0.048,5.957 -4.899,10.783 -10.867,10.783l-109.67,-0l-46.877,-81.195l167.414,0l-0,70.412Zm-237.439,-0.085l-0,-47.673l103.286,-178.9l40.364,0l-87.257,151.14l49.823,86.3l-95.35,-0c-5.998,-0 -10.866,-4.869 -10.866,-10.867Zm132.349,-79.587l-40.81,0c-4.557,0 -8.767,-2.39 -11.042,-6.338c-2.281,-3.944 -2.281,-8.806 -0,-12.751l20.414,-35.364l31.438,54.453Zm94.224,-146.986c5.968,0 10.819,4.825 10.867,10.784l-0,136.202l-94.4,0l-36.786,-63.705l48.082,-83.281l72.237,0Z" style="fill:url(#_Radial1);fill-rule:nonzero;"/></g><g><g><path d="M44.077,330.86l-25.492,-0" style="fill:none;stroke:#160000;stroke-width:5.04px;"/><path d="M14.643,337.824l19.841,-44.414l20.499,44.414" style="fill:none;stroke:#160000;stroke-width:5.04px;"/><path d="M62.595,338.494l-0,-44.841l22.338,-0" style="fill:none;stroke:#160000;stroke-width:5.04px;"/><path d="M76.227,315.006l-13.632,-0" style="fill:none;stroke:#160000;stroke-width:5.04px;"/><path d="M96.759,338.494l-0,-44.841l22.338,-0" style="fill:none;stroke:#160000;stroke-width:5.04px;"/><path d="M110.392,315.006l-13.633,-0" style="fill:none;stroke:#160000;stroke-width:5.04px;"/><path d="M131.272,293.127l0,45.596" style="fill:none;stroke:#160000;stroke-width:5.04px;"/><path d="M191.848,293.127l0,45.596" style="fill:none;stroke:#160000;stroke-width:5.04px;"/><path d="M144.544,338.592l-0,-44.019l34.164,43.888l0,-45.728" style="fill:none;stroke:#160000;stroke-width:5.04px;"/><path d="M204.307,294.293l27.2,0l-13.403,0l0,43.757" style="fill:none;stroke:#160000;stroke-width:5.04px;"/><path d="M239.26,292.322l19.184,33.376l20.368,-33.113l-20.368,33.113l0,12.483" style="fill:none;stroke:#160000;stroke-width:5.04px;"/></g><g transform="matrix(72.9035,0,0,72.9035,292.529,398.043)"></g><text x="-5.268px" y="398.043px" style="font-family:'Arial-BoldMT', 'Arial';font-weight:700;font-size:72.904px;">D<tspan x="45.355px 83.875px 122.395px 140.624px 183.131px 225.638px 264.158px " y="398.043px 398.043px 398.043px 398.043px 398.043px 398.043px 398.043px ">esigner</tspan></text></g></g><defs><radialGradient id="_Radial1" cx="0" cy="0" r="1" gradientUnits="userSpaceOnUse" gradientTransform="matrix(282.045,0,0,-282.045,209.596,-24.399)"><stop offset="0" style="stop-color:#6be1fb;stop-opacity:1"/><stop offset="1" style="stop-color:#38bdfa;stop-opacity:1"/></radialGradient></defs></svg>