<?xml version="1.0" encoding="UTF-8" standalone="no"?><!DOCTYPE svg PUBLIC "-//W3C//DTD SVG 1.1//EN" "http://www.w3.org/Graphics/SVG/1.1/DTD/svg11.dtd"><svg width="100%" height="100%" viewBox="0 0 780 414" version="1.1" xmlns="http://www.w3.org/2000/svg" xmlns:xlink="http://www.w3.org/1999/xlink" xml:space="preserve" xmlns:serif="http://www.serif.com/" style="fill-rule:evenodd;clip-rule:evenodd;stroke-linejoin:round;stroke-miterlimit:2;"><g id="Space-Gass" serif:id="Space Gass"><g><circle cx="394.753" cy="114.972" r="114.972" style="fill:#d54f27;"/><path d="M270.083,70.664c5.183,-12.617 5.336,-18.673 20.452,-38.68c-69.13,18.591 -115.348,60.075 -115.348,112.983c0,71.972 103.794,114.356 210.988,114.356c69.8,0 182.162,-36.347 218.209,-120.278c-52.048,70.362 -147.014,103.146 -219.88,105.822c-77.468,2.846 -186.002,-35.486 -186.002,-101.287c0,-47.363 64.016,-71.33 71.581,-72.916Z" style="fill:#d54f27;"/></g><g transform="matrix(117.622,0,0,117.622,785.717,411.95)"></g><text x="-5.284px" y="411.95px" style="font-family:'ArialMT', 'Arial';font-size:117.622px;fill:#2f506e;">S<tspan x="78.398px 153.349px 237.03px 327.202px 405.654px 443.183px 539.901px 623.583px 707.264px " y="411.95px 411.95px 411.95px 411.95px 411.95px 411.95px 411.95px 411.95px 411.95px ">PACE GASS</tspan></text></g></svg>