<?xml version="1.0" encoding="UTF-8" standalone="no"?><!DOCTYPE svg PUBLIC "-//W3C//DTD SVG 1.1//EN" "http://www.w3.org/Graphics/SVG/1.1/DTD/svg11.dtd"><svg width="100%" height="100%" viewBox="0 0 289 414" version="1.1" xmlns="http://www.w3.org/2000/svg" xmlns:xlink="http://www.w3.org/1999/xlink" xml:space="preserve" xmlns:serif="http://www.serif.com/" style="fill-rule:evenodd;clip-rule:evenodd;stroke-linecap:round;stroke-linejoin:round;stroke-miterlimit:1.5;"><g id="photo"><g><g id="photo_icon_marketing"><g><path d="M288.295,28.154c-0,-15.539 -12.615,-28.154 -28.154,-28.154l-231.987,0c-15.539,0 -28.154,12.615 -28.154,28.154l-0,231.987c-0,15.538 12.615,28.153 28.154,28.153l231.987,0c15.539,0 28.154,-12.615 28.154,-28.153l-0,-231.987Z" style="fill:#4e3188;"/></g><g><path d="M267.179,183.024l0,72.893c0,6.141 -4.924,11.14 -11.036,11.26l-74.444,-0.001l-48.605,-84.152l134.085,-0Zm-96.556,84.152l-131.698,0l65.886,-113.942l65.812,113.942Zm-142.272,-0.74c-3.984,-1.527 -6.881,-5.251 -7.205,-9.684l-0.031,-50.244l53.54,-92.696l41.848,-0l-88.152,152.624Zm126.424,-152.797c3.646,0.015 7.134,2.156 9.018,5.331c0.02,0.032 0.056,0.096 0.056,0.096l11.065,19.16c-0,-0 0.064,0.107 0.095,0.158c1.808,3.163 1.878,7.148 0.071,10.369c-3.708,6.487 -7.475,12.943 -11.214,19.414c-1.836,3.148 -5.31,5.201 -9.003,5.247c-7.047,0.03 -21.178,0.013 -21.197,0.013c-3.646,-0.015 -7.191,-1.959 -9.077,-5.133c-0.043,-0.069 -0.121,-0.209 -0.121,-0.209c-0,-0 -11.07,-19.161 -11.093,-19.206c-1.81,-3.163 -1.807,-7.249 0,-10.469c0.025,-0.047 0.082,-0.142 0.082,-0.142c-0,0 7.407,-12.848 11.115,-19.273c1.835,-3.147 5.318,-5.312 9.009,-5.359c0.062,0 0.186,-0.003 0.186,-0.003l20.882,0.006l0.126,-0Zm104.772,-91.925l-87.629,151.713l95.261,0l0,-141.05c0,-4.946 -3.195,-9.151 -7.632,-10.663Zm-131.352,-0.599l120.62,0l-65.233,112.941l-60.308,-104.417l4.921,-8.524Zm27.079,83.108l-75.081,-0l37.54,-64.995l37.541,64.995Z" style="fill:url(#_Radial1);"/></g></g></g><g><g><path d="M37.769,342.877l-26.418,-0" style="fill:none;stroke:#160000;stroke-width:5.04px;"/><path d="M7.266,350.094l20.562,-46.027l21.243,46.027" style="fill:none;stroke:#160000;stroke-width:5.04px;"/><path d="M56.959,350.788l0,-46.47l23.15,0" style="fill:none;stroke:#160000;stroke-width:5.04px;"/><path d="M71.087,326.447l-14.128,-0" style="fill:none;stroke:#160000;stroke-width:5.04px;"/><path d="M92.364,350.788l0,-46.47l23.15,0" style="fill:none;stroke:#160000;stroke-width:5.04px;"/><path d="M106.492,326.447l-14.128,-0" style="fill:none;stroke:#160000;stroke-width:5.04px;"/><path d="M128.131,303.774l0,47.252" style="fill:none;stroke:#160000;stroke-width:5.04px;"/><path d="M190.908,303.774l-0,47.252" style="fill:none;stroke:#160000;stroke-width:5.04px;"/><path d="M141.885,350.89l-0,-45.618l35.405,45.482l0,-47.389" style="fill:none;stroke:#160000;stroke-width:5.04px;"/><path d="M203.819,304.982l28.188,0l-13.89,0l-0,45.346" style="fill:none;stroke:#160000;stroke-width:5.04px;"/><path d="M240.041,302.94l19.881,34.588l21.107,-34.316l-21.107,34.316l0,12.936" style="fill:none;stroke:#160000;stroke-width:5.04px;"/></g><g transform="matrix(75.5514,0,0,75.5514,245.548,412.5)"></g><text x="39.943px" y="412.5px" style="font-family:'Arial-BoldMT', 'Arial';font-weight:700;font-size:75.551px;">P<tspan x="88.236px 132.287px 176.338px 199.398px " y="412.5px 412.5px 412.5px 412.5px ">hoto</tspan></text></g></g><defs><radialGradient id="_Radial1" cx="0" cy="0" r="1" gradientUnits="userSpaceOnUse" gradientTransform="matrix(292.307,0,0,292.306,209.191,-25.1297)"><stop offset="0" style="stop-color:#f9a6ff;stop-opacity:1"/><stop offset="1" style="stop-color:#ea73ff;stop-opacity:1"/></radialGradient></defs></svg>