<?xml version="1.0" encoding="UTF-8" standalone="no"?><!DOCTYPE svg PUBLIC "-//W3C//DTD SVG 1.1//EN" "http://www.w3.org/Graphics/SVG/1.1/DTD/svg11.dtd"><svg width="100%" height="100%" viewBox="0 0 342 414" version="1.1" xmlns="http://www.w3.org/2000/svg" xmlns:xlink="http://www.w3.org/1999/xlink" xml:space="preserve" xmlns:serif="http://www.serif.com/" style="fill-rule:evenodd;clip-rule:evenodd;stroke-linejoin:round;stroke-miterlimit:2;"><g id="Python"><path id="path1948" d="M168.582,0.003c-14.07,0.065 -27.507,1.265 -39.33,3.357c-34.829,6.153 -41.153,19.032 -41.153,42.784l0,31.368l82.306,-0l-0,10.456l-113.194,-0c-23.92,-0 -44.865,14.377 -51.417,41.728c-7.557,31.351 -7.892,50.914 0,83.648c5.851,24.367 19.823,41.729 43.743,41.729l28.298,-0l0,-37.604c0,-27.166 23.505,-51.129 51.417,-51.129l82.21,0c22.884,0 41.152,-18.842 41.152,-41.824l0,-78.372c0,-22.306 -18.817,-39.061 -41.152,-42.784c-14.139,-2.353 -28.81,-3.423 -42.88,-3.357Zm-44.51,25.229c8.502,-0 15.444,7.056 15.444,15.732c0,8.645 -6.942,15.636 -15.444,15.636c-8.532,-0 -15.444,-6.991 -15.444,-15.636c-0,-8.676 6.912,-15.732 15.444,-15.732Z" style="fill:url(#_Linear1);fill-rule:nonzero;"/><path id="path1950" d="M262.878,87.968l0,36.548c0,28.335 -24.022,52.184 -51.416,52.184l-82.21,0c-22.518,0 -41.153,19.273 -41.153,41.825l0,78.372c0,22.305 19.396,35.425 41.153,41.824c26.053,7.661 51.037,9.045 82.21,0c20.72,-5.999 41.152,-18.073 41.152,-41.824l0,-31.368l-82.209,-0l-0,-10.456l123.362,-0c23.92,-0 32.834,-16.685 41.153,-41.729c8.593,-25.781 8.227,-50.575 -0,-83.648c-5.912,-23.813 -17.202,-41.728 -41.153,-41.728l-30.889,-0Zm-46.236,198.473c8.532,-0 15.444,6.991 15.444,15.636c-0,8.676 -6.912,15.732 -15.444,15.732c-8.502,-0 -15.445,-7.056 -15.445,-15.732c0,-8.645 6.943,-15.636 15.445,-15.636Z" style="fill:url(#_Linear2);fill-rule:nonzero;"/><ellipse id="path1894" cx="171.339" cy="391.999" rx="110.296" ry="21.387" style="fill:url(#_Radial3);"/></g><defs><linearGradient id="_Linear1" x1="0" y1="0" x2="1" y2="0" gradientUnits="userSpaceOnUse" gradientTransform="matrix(188.251,163.528,-163.528,188.251,-1.00527e-06,-9.14263e-07)"><stop offset="0" style="stop-color:#5a9fd4;stop-opacity:1"/><stop offset="1" style="stop-color:#306998;stop-opacity:1"/></linearGradient><linearGradient id="_Linear2" x1="0" y1="0" x2="1" y2="0" gradientUnits="userSpaceOnUse" gradientTransform="matrix(-67.2242,-96.0289,96.0289,-67.2242,214.664,299.44)"><stop offset="0" style="stop-color:#ffd43b;stop-opacity:1"/><stop offset="1" style="stop-color:#ffe873;stop-opacity:1"/></linearGradient><radialGradient id="_Radial3" cx="0" cy="0" r="1" gradientUnits="userSpaceOnUse" gradientTransform="matrix(1.559e-06,-21.3873,94.0063,3.37954e-05,171.339,391.999)"><stop offset="0" style="stop-color:#b8b8b8;stop-opacity:0.22"/><stop offset="1" style="stop-color:#7f7f7f;stop-opacity:0"/></radialGradient></defs></svg>