<?xml version="1.0" encoding="UTF-8" standalone="no"?><!DOCTYPE svg PUBLIC "-//W3C//DTD SVG 1.1//EN" "http://www.w3.org/Graphics/SVG/1.1/DTD/svg11.dtd"><svg width="100%" height="100%" viewBox="0 0 100 100" version="1.1" xmlns="http://www.w3.org/2000/svg" xmlns:xlink="http://www.w3.org/1999/xlink" xml:space="preserve" xmlns:serif="http://www.serif.com/" style="fill-rule:evenodd;clip-rule:evenodd;stroke-linejoin:round;stroke-miterlimit:2;"><path d="M0.292,49.509c0,7.447 7.272,14.399 18.736,18.317c-2.29,11.525 -0.411,20.814 5.865,24.433c6.451,3.721 16.062,1.145 25.183,-6.828c8.892,7.651 17.878,10.663 24.149,7.033c6.445,-3.731 8.404,-13.65 6.052,-25.535c11.94,-3.947 18.619,-9.875 18.619,-17.42c0,-7.273 -7.284,-13.566 -18.594,-17.459c2.533,-12.376 0.387,-21.44 -6.149,-25.209c-6.301,-3.633 -15.392,-0.466 -24.414,7.386c-9.387,-8.334 -18.387,-10.879 -24.916,-7.099c-6.296,3.644 -8.092,13.102 -5.795,24.84c-11.077,3.862 -18.736,10.297 -18.736,17.541Z" style="fill:#fff;fill-rule:nonzero;"/><path d="M77.907,35.916c-0.932,-0.32 -1.872,-0.616 -2.819,-0.889c0.157,-0.638 0.302,-1.279 0.436,-1.922c2.133,-10.359 0.738,-18.703 -4.026,-21.45c-4.568,-2.635 -12.039,0.112 -19.585,6.678c-0.744,0.649 -1.471,1.316 -2.18,2.001c-0.476,-0.455 -0.959,-0.902 -1.451,-1.34c-7.908,-7.021 -15.835,-9.98 -20.594,-7.225c-4.564,2.642 -5.916,10.487 -3.995,20.304c0.191,0.972 0.407,1.939 0.647,2.9c-1.121,0.319 -2.204,0.658 -3.241,1.019c-9.271,3.233 -15.192,8.299 -15.192,13.553c0,5.427 6.356,10.871 16.013,14.171c0.783,0.267 1.573,0.513 2.368,0.74c-0.258,1.036 -0.488,2.078 -0.688,3.127c-1.831,9.646 -0.401,17.305 4.151,19.931c4.701,2.711 12.592,-0.076 20.275,-6.792c0.608,-0.531 1.217,-1.094 1.828,-1.684c0.768,0.741 1.558,1.462 2.367,2.159c7.442,6.405 14.792,8.991 19.34,6.358c4.697,-2.719 6.224,-10.947 4.242,-20.958c-0.151,-0.764 -0.328,-1.545 -0.525,-2.341c0.554,-0.163 1.097,-0.332 1.628,-0.508c10.039,-3.326 16.57,-8.703 16.57,-14.203c0,-5.273 -6.111,-10.373 -15.569,-13.629Z" style="fill:#53c1de;fill-rule:nonzero;"/><path d="M75.729,60.197c-0.478,0.159 -0.97,0.312 -1.47,0.46c-1.109,-3.508 -2.605,-7.239 -4.435,-11.093c1.747,-3.763 3.185,-7.446 4.262,-10.932c0.896,0.259 1.766,0.533 2.603,0.821c8.104,2.789 13.047,6.914 13.047,10.092c-0,3.385 -5.339,7.78 -14.006,10.652l-0.001,0Zm-3.596,7.127c0.876,4.426 1.001,8.429 0.421,11.557c-0.522,2.812 -1.57,4.686 -2.867,5.437c-2.76,1.597 -8.662,-0.479 -15.026,-5.956c-0.73,-0.628 -1.465,-1.299 -2.202,-2.008c2.467,-2.699 4.933,-5.836 7.34,-9.32c4.233,-0.376 8.233,-0.99 11.86,-1.828c0.178,0.72 0.337,1.427 0.474,2.118Zm-36.372,16.718c-2.696,0.952 -4.843,0.979 -6.141,0.231c-2.762,-1.593 -3.91,-7.744 -2.344,-15.993c0.186,-0.974 0.399,-1.944 0.639,-2.907c3.587,0.793 7.557,1.364 11.801,1.708c2.423,3.41 4.96,6.543 7.517,9.288c-0.543,0.525 -1.1,1.037 -1.668,1.536c-3.398,2.97 -6.803,5.077 -9.803,6.137l-0.001,-0Zm-12.631,-23.866c-4.27,-1.459 -7.796,-3.356 -10.213,-5.425c-2.172,-1.861 -3.269,-3.707 -3.269,-5.206c0,-3.188 4.754,-7.256 12.683,-10.02c0.995,-0.345 2,-0.662 3.014,-0.948c1.096,3.564 2.533,7.291 4.268,11.059c-1.757,3.825 -3.215,7.611 -4.321,11.217c-0.726,-0.208 -1.447,-0.433 -2.162,-0.677Zm4.234,-28.822c-1.645,-8.411 -0.553,-14.755 2.198,-16.347c2.93,-1.696 9.408,0.722 16.235,6.785c0.437,0.387 0.875,0.793 1.314,1.213c-2.544,2.731 -5.058,5.841 -7.459,9.231c-4.119,0.382 -8.061,0.995 -11.686,1.816c-0.223,-0.894 -0.424,-1.794 -0.602,-2.698l0,0Zm37.774,9.327c-0.856,-1.478 -1.744,-2.938 -2.663,-4.379c2.794,0.353 5.471,0.822 7.985,1.396c-0.755,2.418 -1.696,4.948 -2.803,7.54c-0.809,-1.535 -1.649,-3.055 -2.519,-4.557Zm-15.404,-15.003c1.725,1.869 3.453,3.956 5.153,6.221c-3.448,-0.163 -6.902,-0.164 -10.35,-0.003c1.701,-2.243 3.444,-4.327 5.197,-6.218Zm-15.503,15.029c-0.859,1.49 -1.683,3 -2.472,4.529c-1.089,-2.584 -2.021,-5.125 -2.782,-7.578c2.498,-0.559 5.163,-1.016 7.939,-1.363c-0.93,1.45 -1.825,2.921 -2.685,4.412Zm2.764,22.355c-2.867,-0.32 -5.572,-0.754 -8.07,-1.298c0.773,-2.496 1.726,-5.091 2.839,-7.73c0.791,1.529 1.619,3.04 2.482,4.531c0.881,1.521 1.797,3.02 2.749,4.497Zm12.842,10.615c-1.773,-1.914 -3.541,-4.03 -5.268,-6.306c1.676,0.066 3.386,0.099 5.123,0.099c1.785,0 3.55,-0.04 5.286,-0.117c-1.705,2.317 -3.427,4.437 -5.141,6.324Zm17.855,-19.778c1.171,2.668 2.158,5.249 2.941,7.703c-2.539,0.58 -5.28,1.046 -8.169,1.393c0.926,-1.467 1.822,-2.953 2.689,-4.456c0.881,-1.528 1.727,-3.075 2.539,-4.64Zm-5.78,2.771c-1.326,2.305 -2.727,4.565 -4.201,6.778c-2.598,0.186 -5.283,0.282 -8.019,0.282c-2.725,-0 -5.376,-0.085 -7.929,-0.251c-1.511,-2.208 -2.939,-4.472 -4.279,-6.788c-1.334,-2.304 -2.581,-4.658 -3.736,-7.056c1.152,-2.399 2.395,-4.754 3.725,-7.06l-0,0.001c1.329,-2.306 2.745,-4.561 4.246,-6.759c2.604,-0.197 5.274,-0.3 7.973,-0.3c2.712,-0 5.385,0.103 7.989,0.302c1.485,2.195 2.892,4.442 4.219,6.737c1.334,2.3 2.593,4.643 3.775,7.026c-1.169,2.407 -2.424,4.771 -3.762,7.088l-0.001,0Zm7.717,-41.775c2.933,1.692 4.073,8.511 2.231,17.455c-0.121,0.583 -0.252,1.163 -0.394,1.741c-3.633,-0.839 -7.578,-1.462 -11.709,-1.85c-2.406,-3.426 -4.899,-6.542 -7.402,-9.238c0.656,-0.633 1.327,-1.249 2.014,-1.847c6.465,-5.627 12.507,-7.848 15.26,-6.261Z" style="fill:#fff;fill-rule:nonzero;"/><path d="M49.692,41.725c4.319,0 7.82,3.502 7.82,7.82c-0,4.319 -3.501,7.82 -7.82,7.82c-4.319,0 -7.82,-3.501 -7.82,-7.82c0,-4.318 3.501,-7.82 7.82,-7.82" style="fill:#53c1de;fill-rule:nonzero;"/></svg>