<?xml version="1.0" encoding="UTF-8" standalone="no"?><!DOCTYPE svg PUBLIC "-//W3C//DTD SVG 1.1//EN" "http://www.w3.org/Graphics/SVG/1.1/DTD/svg11.dtd"><svg width="100%" height="100%" viewBox="0 0 412 414" version="1.1" xmlns="http://www.w3.org/2000/svg" xmlns:xlink="http://www.w3.org/1999/xlink" xml:space="preserve" xmlns:serif="http://www.serif.com/" style="fill-rule:evenodd;clip-rule:evenodd;stroke-linecap:round;stroke-linejoin:round;stroke-miterlimit:1.5;"><g id="Etabs"><g><path d="M323.203,413.386l60.972,-0c15.314,-0 27.728,-12.415 27.728,-27.729c0,-82.478 0,-323.842 0,-377.16c-14.783,-0 -97.515,295.679 -88.7,404.889Z" style="fill:#526f7f;"/><path d="M191.403,413.386l-60.971,-0c-15.314,-0 -27.729,-12.415 -27.729,-27.729c0,-82.478 0,-323.842 0,-377.16c14.783,-0 97.515,295.679 88.7,404.889Z" style="fill:#526f7f;"/><path d="M120.335,0l276.206,0c-33.669,75.296 -90.174,325.861 -84.297,413.386l-107.612,-0c5.877,-87.525 -50.628,-338.09 -84.297,-413.386Z" style="fill:#93b2c4;"/></g><g><path d="M232.641,99.159l-0,207.982c-0,7.573 -6.149,13.721 -13.721,13.721l-202.677,0c-7.573,0 -13.721,-6.148 -13.721,-13.721l-0,-207.982c-0,-7.573 6.148,-13.721 13.721,-13.721l202.677,0c7.572,0 13.721,6.148 13.721,13.721Z" style="fill:#3a73b9;stroke:#c8eafb;stroke-width:5.04px;"/><path d="M64.024,142.18c-0,-6.182 2.456,-12.111 6.827,-16.483c4.372,-4.371 10.301,-6.827 16.483,-6.827c30.994,-0 81.907,-0 81.907,-0l-0,32.027l-64.318,0c-3.262,0 -5.906,2.644 -5.906,5.906c0,9.633 0,27.664 0,27.664l55.817,0l0,32.265l-55.817,0l0,32.765c0,1.566 0.622,3.068 1.73,4.176c1.107,1.107 2.609,1.73 4.176,1.73c17.227,-0 66.216,-0 66.216,-0l-0,32.027l-83.493,0c-6.265,0 -12.273,-2.488 -16.703,-6.918c-4.43,-4.43 -6.919,-10.439 -6.919,-16.704l-0,-121.628Z" style="fill:#fff;fill-rule:nonzero;"/></g></g></svg>