<?xml version="1.0" encoding="UTF-8" standalone="no"?><!DOCTYPE svg PUBLIC "-//W3C//DTD SVG 1.1//EN" "http://www.w3.org/Graphics/SVG/1.1/DTD/svg11.dtd"><svg width="100%" height="100%" viewBox="0 0 712 414" version="1.1" xmlns="http://www.w3.org/2000/svg" xmlns:xlink="http://www.w3.org/1999/xlink" xml:space="preserve" xmlns:serif="http://www.serif.com/" style="fill-rule:evenodd;clip-rule:evenodd;stroke-linejoin:round;stroke-miterlimit:2;"><g id="Blender"><g><g><path d="M318.154,160.006c1.266,-22.59 12.329,-42.493 29.018,-56.601c16.366,-13.858 38.395,-22.328 62.431,-22.328c24.012,0 46.041,8.47 62.42,22.328c16.677,14.108 27.739,34.011 29.017,56.577c1.267,23.211 -8.063,44.774 -24.43,60.758c-16.689,16.259 -40.426,26.461 -67.007,26.461c-26.58,-0 -50.366,-10.202 -67.043,-26.461c-16.378,-15.984 -25.684,-37.547 -24.406,-60.734Z" style="fill:#fff;fill-rule:nonzero;"/></g><path d="M288.656,182.15c0.08,4.536 1.527,13.351 3.696,20.234c4.561,14.571 12.297,28.05 23.061,39.929c11.045,12.21 24.647,22.018 40.358,28.981c16.513,7.313 34.406,11.04 52.991,11.009c18.555,-0.025 36.448,-3.825 52.961,-11.193c15.711,-7.031 29.3,-16.881 40.328,-29.097c10.757,-11.929 18.481,-25.432 23.054,-40.002c2.298,-7.362 3.751,-14.834 4.333,-22.331c0.57,-7.386 0.331,-14.785 -0.717,-22.177c-2.047,-14.405 -7.031,-27.92 -14.705,-40.241c-7.019,-11.322 -16.066,-21.233 -26.824,-29.576l0.025,-0.018l-108.564,-83.357c-0.098,-0.074 -0.178,-0.154 -0.282,-0.221c-7.123,-5.468 -19.1,-5.449 -26.934,0.031c-7.92,5.541 -8.827,14.705 -1.778,20.485l-0.03,0.031l45.28,36.82l-138.011,0.148l-0.184,-0c-11.407,0.012 -22.373,7.496 -24.543,16.954c-2.232,9.636 5.516,17.629 17.377,17.672l-0.018,0.043l69.953,-0.135l-124.826,95.813c-0.16,0.116 -0.331,0.239 -0.478,0.355c-11.776,9.017 -15.582,24.01 -8.165,33.499c7.527,9.648 23.532,9.666 35.43,0.055l68.126,-55.755c-0,-0 -0.993,7.527 -0.914,12.044Zm175.059,25.206c-14.037,14.3 -33.689,22.41 -54.953,22.453c-21.294,0.036 -40.946,-8 -54.983,-22.276c-6.86,-6.957 -11.898,-14.962 -15.006,-23.488c-3.047,-8.38 -4.23,-17.274 -3.445,-26.248c0.742,-8.771 3.353,-17.138 7.521,-24.708c4.095,-7.442 9.734,-14.166 16.698,-19.854c13.644,-11.119 31.016,-17.139 49.185,-17.163c18.187,-0.025 35.546,5.939 49.203,17.022c6.951,5.664 12.584,12.363 16.679,19.792c4.187,7.564 6.78,15.901 7.552,24.697c0.772,8.961 -0.411,17.843 -3.457,26.229c-3.114,8.55 -8.134,16.556 -14.994,23.544Z" style="fill:#ea7600;fill-rule:nonzero;"/><path d="M362.677,162.018c0.649,-11.591 6.325,-21.803 14.889,-29.042c8.397,-7.11 19.701,-11.456 32.034,-11.456c12.32,-0 23.624,4.346 32.028,11.456c8.557,7.239 14.233,17.451 14.889,29.03c0.649,11.91 -4.138,22.974 -12.536,31.175c-8.563,8.343 -20.743,13.578 -34.381,13.578c-13.639,-0 -25.843,-5.235 -34.4,-13.578c-8.404,-8.201 -13.179,-19.265 -12.523,-31.163Z" style="fill:#265787;fill-rule:nonzero;"/></g><g><path d="M557.273,350.073c1.048,-11.696 10.089,-19.113 23.9,-19.113c13.828,0 22.864,7.417 23.912,19.113l-47.812,-0Zm46.396,28.876c-3.537,8.668 -11.874,13.798 -23.195,13.798c-14.178,0 -23.722,-8.851 -24.108,-22.833l81.507,0l-0,-4.113c-0,-35.025 -20.559,-54.707 -57.399,-54.707c-35.773,0 -57.405,19.866 -57.405,51.023c-0,31.347 21.969,51.183 57.405,51.183c21.264,0 37.753,-7.288 47.916,-20.099l-24.721,-14.252Z" style="fill:#265787;fill-rule:nonzero;"/><path d="M195.618,350.134c1.079,-11.695 10.12,-19.112 23.943,-19.112c13.804,-0 22.839,7.417 23.9,19.112l-47.843,-0Zm46.427,28.877c-3.543,8.692 -11.873,13.822 -23.22,13.822c-14.153,0 -23.722,-8.876 -24.096,-22.864l81.489,0l0,-4.088c0,-35.043 -20.553,-54.732 -57.393,-54.732c-35.791,0 -57.38,19.873 -57.38,51.03c0,31.347 21.957,51.182 57.38,51.182c21.258,0 37.76,-7.263 47.941,-20.093l-24.721,-14.257Z" style="fill:#265787;fill-rule:nonzero;"/><rect x="124.759" y="289.941" width="29.392" height="120.245" style="fill:#265787;"/><path d="M283.519,321.876l29.557,0l0,7.16c10.464,-11.169 23.03,-16.814 37.202,-16.814c16.323,-0 28.681,5.645 35.062,15.257c5.327,7.938 5.676,17.518 5.676,30.109l-0,52.586l-29.601,-0l0,-46.205c0,-19.174 -3.855,-28.025 -20.687,-28.025c-17.01,-0 -27.652,10.132 -27.652,27.142l0,47.088l-29.557,-0l-0,-88.298Z" style="fill:#265787;fill-rule:nonzero;"/><path d="M486.229,363.619c0,16.458 -10.997,27.253 -28.013,27.253c-17.028,-0 -28.025,-10.427 -28.025,-27.063c0,-16.881 10.85,-27.301 28.025,-27.301c17.016,-0 28.013,10.604 28.013,27.111Zm0,-37.74c-7.472,-8.012 -18.285,-12.407 -33.315,-12.407c-32.426,0 -54.567,19.995 -54.567,49.963c0,29.38 21.987,49.932 54.034,49.932c14.693,0 25.481,-3.714 33.848,-12.044l0,8.851l29.576,-0l0,-127.871l-29.576,7.625l0,35.951Z" style="fill:#265787;fill-rule:nonzero;"/><path d="M57.577,336.526c17.187,0 27.994,10.42 27.994,27.302c0,16.635 -10.978,27.062 -27.994,27.062c-17.004,-0 -27.989,-10.794 -27.989,-27.252c0,-16.508 10.985,-27.112 27.989,-27.112Zm-27.989,-46.579l-29.588,-7.626l0,127.871l29.588,0l0,-8.851c8.324,8.33 19.131,12.045 33.836,12.045c32.065,-0 54.022,-20.553 54.022,-49.932c-0,-29.968 -22.147,-49.963 -54.555,-49.963c-15.061,-0 -25.867,4.395 -33.303,12.406l0,-35.95Z" style="fill:#265787;fill-rule:nonzero;"/><path d="M645.173,410.205l0,-88.298l29.576,-0l0,5.455c8.858,-10.665 18.23,-15.974 28.89,-15.974c2.114,0 4.775,0.344 8.312,0.693l-0,25.174c-2.851,-0.373 -6.026,-0.373 -9.397,-0.373c-17.194,-0 -27.805,11.339 -27.805,30.623l0,42.7l-29.576,-0Z" style="fill:#265787;fill-rule:nonzero;"/></g></g></svg>