<?xml version="1.0" encoding="UTF-8" standalone="no"?><!DOCTYPE svg PUBLIC "-//W3C//DTD SVG 1.1//EN" "http://www.w3.org/Graphics/SVG/1.1/DTD/svg11.dtd"><svg width="100%" height="100%" viewBox="0 0 420 419" version="1.1" xmlns="http://www.w3.org/2000/svg" xmlns:xlink="http://www.w3.org/1999/xlink" xml:space="preserve" xmlns:serif="http://www.serif.com/" style="fill-rule:evenodd;clip-rule:evenodd;stroke-linecap:round;stroke-linejoin:round;stroke-miterlimit:1.5;"><g id="Sap"><g><g><path d="M239.772,65.948c63.889,-0 147.144,-69.351 176.548,-63.017c9.831,31.997 -53.274,110.714 -53.274,203.147c0,76.664 46.978,157.896 53.502,204.221c-24.793,10.222 -117.269,-58.765 -183.821,-58.765c-66.551,-0 -155.895,67.073 -180.602,64.289c-10.178,-31.492 59.07,-143.846 59.07,-201.263c-0,-57.417 -64.665,-183.304 -55.199,-210.355c23.141,-5.948 111.883,61.743 183.776,61.743Z" style="fill:#526f7f;stroke:#93b2c4;stroke-width:5.04px;"/><path d="M237.359,128.352c36.06,-0 83.051,-39.143 99.648,-35.569c5.548,18.06 -30.069,62.49 -30.069,114.661c-0,43.271 26.515,89.121 30.198,115.268c-13.995,5.769 -66.19,-33.169 -103.753,-33.169c-37.563,0 -87.991,37.858 -101.936,36.287c-5.745,-17.775 33.34,-81.191 33.34,-113.598c-0,-32.408 -36.499,-103.461 -31.155,-118.729c13.061,-3.358 63.149,34.849 103.727,34.849Z" style="fill:#93b2c4;"/><g><path d="M236.821,199.702c4.748,-0 10.936,-5.26 13.121,-4.78c0.731,2.427 -3.959,8.397 -3.959,15.407c-0,5.815 3.491,11.975 3.976,15.489c-1.843,0.775 -8.715,-4.457 -13.662,-4.457c-4.946,-0 -11.586,5.087 -13.422,4.876c-0.756,-2.389 4.39,-10.91 4.39,-15.264c0,-4.355 -4.806,-13.902 -4.102,-15.954c1.72,-0.451 8.315,4.683 13.658,4.683Z" style="fill:#4a6271;"/><path d="M266.182,217.868c-3.949,-0 -7.154,-3.271 -7.154,-7.301c-0,-4.029 3.205,-7.301 7.154,-7.301l28.034,0c3.949,0 7.155,3.272 7.155,7.301c-0,4.03 -3.206,7.301 -7.155,7.301l-28.034,-0Z" style="fill:#4a6271;"/><path d="M174.247,217.868c-3.948,-0 -7.154,-3.271 -7.154,-7.301c-0,-4.029 3.206,-7.301 7.154,-7.301l28.035,0c3.948,0 7.154,3.272 7.154,7.301c0,4.03 -3.206,7.301 -7.154,7.301l-28.035,-0Z" style="fill:#4a6271;"/><path d="M229.255,144.752c0,-4.029 3.206,-7.3 7.154,-7.3c3.949,-0 7.155,3.271 7.155,7.3l-0,28.609c-0,4.029 -3.206,7.301 -7.155,7.301c-3.948,-0 -7.154,-3.272 -7.154,-7.301l0,-28.609Z" style="fill:#4a6271;"/><path d="M229.255,245.069c0,-4.03 3.206,-7.301 7.154,-7.301c3.949,0 7.155,3.271 7.155,7.301l-0,28.608c-0,4.03 -3.206,7.301 -7.155,7.301c-3.948,0 -7.154,-3.271 -7.154,-7.301l0,-28.608Z" style="fill:#4a6271;"/></g></g><g><path d="M413.233,30.255c-8.514,10.946 -68.753,73.138 -80.072,65.679c-8.62,-5.682 37.867,-70.909 48.003,-83.275" style="fill:none;stroke:#93b2c4;stroke-width:5.04px;"/><path d="M59.771,35.12c8.514,10.946 64.213,68.273 75.531,60.814c8.621,-5.682 -41.921,-72.045 -52.056,-84.41" style="fill:none;stroke:#93b2c4;stroke-width:5.04px;"/><path d="M409.773,384.197c-8.513,-10.947 -65.293,-69.161 -76.612,-61.701c-8.62,5.681 39.802,68.368 49.938,80.734" style="fill:none;stroke:#93b2c4;stroke-width:5.04px;"/><path d="M55.231,388.175c8.514,-10.946 68.753,-73.139 80.071,-65.679c8.621,5.681 -41.11,70.585 -51.246,82.95" style="fill:none;stroke:#93b2c4;stroke-width:5.04px;"/></g></g><g><path d="M225.009,106.664l-0,201.084c-0,7.322 -5.944,13.266 -13.266,13.266l-195.955,-0c-7.322,-0 -13.266,-5.944 -13.266,-13.266l-0,-201.084c-0,-7.322 5.944,-13.266 13.266,-13.266l195.955,-0c7.322,-0 13.266,5.944 13.266,13.266Z" style="fill:#3a73b9;stroke:#c8eafb;stroke-width:5.04px;"/><g transform="matrix(213.757,0,0,213.757,178.112,281.259)"></g><text x="49.419px" y="281.259px" style="font-family:'Monospace821BT-Bold', 'Monospac821 BT';font-weight:700;font-size:213.757px;fill:#fff;">S</text></g></g></svg>