<?xml version="1.0" encoding="UTF-8" standalone="no"?><!DOCTYPE svg PUBLIC "-//W3C//DTD SVG 1.1//EN" "http://www.w3.org/Graphics/SVG/1.1/DTD/svg11.dtd"><svg width="100%" height="100%" viewBox="0 0 415 414" version="1.1" xmlns="http://www.w3.org/2000/svg" xmlns:xlink="http://www.w3.org/1999/xlink" xml:space="preserve" xmlns:serif="http://www.serif.com/" style="fill-rule:evenodd;clip-rule:evenodd;stroke-linejoin:round;stroke-miterlimit:2;"><g id="Ruby"><path id="polygon3282" d="M321.16,272.85l-236.675,140.536l306.449,-20.795l23.603,-309.006l-93.377,189.265Z" style="fill:url(#_Linear1);"/><path id="polygon3293" d="M391.436,392.38l-26.339,-181.796l-71.745,94.737l98.084,87.059Z" style="fill:url(#_Linear2);"/><path id="polygon3304" d="M391.792,392.38l-192.966,-15.148l-113.316,35.758l306.282,-20.61Z" style="fill:url(#_Linear3);"/><path id="polygon3319" d="M85.782,413.03l48.205,-157.923l-106.076,22.683l57.871,135.24Z" style="fill:url(#_Linear4);"/><path id="polygon3334" d="M293.333,305.844l-44.356,-173.74l-126.936,118.986l171.292,54.754Z" style="fill:url(#_Linear5);"/><path id="polygon3349" d="M404.473,134.552l-119.99,-98l-33.414,108.022l153.404,-10.022Z" style="fill:url(#_Linear6);"/><path id="polygon3362" d="M348.359,1.611l-70.572,38.999l-44.523,-39.522l115.095,0.523Z" style="fill:url(#_Linear7);"/><path id="polygon3375" d="M0,330.763l29.563,-53.917l-23.914,-64.232l-5.649,118.149Z" style="fill:url(#_Linear8);"/><path id="path3377" d="M4.059,210.584l24.061,68.25l104.549,-23.457l119.363,-110.93l33.685,-106.996l-53.04,-37.451l-90.176,33.748c-28.411,26.425 -83.542,78.71 -85.529,79.694c-1.967,1.004 -36.405,66.094 -52.913,97.142Z" style="fill:#fff;"/><path id="path3400" d="M88.544,87.979c61.575,-61.052 140.954,-97.122 171.417,-66.387c30.445,30.735 -1.841,105.428 -63.415,166.459c-61.575,61.031 -139.972,99.089 -170.414,68.354c-30.463,-30.714 0.837,-107.395 62.412,-168.426Z" style="fill:url(#_Linear9);"/><path id="path3413" d="M85.782,412.967l47.829,-158.424l158.843,51.029c-57.432,53.855 -121.308,99.382 -206.672,107.395Z" style="fill:url(#_Linear10);"/><path id="path3424" d="M252.241,144.135l40.778,161.521c47.975,-50.444 91.034,-104.675 112.121,-171.752l-152.899,10.231Z" style="fill:url(#_Linear11);"/><path id="path3435" d="M404.724,134.72c16.319,-49.252 20.085,-119.907 -56.869,-133.025l-63.144,34.877l120.013,98.148Z" style="fill:url(#_Linear12);"/><path id="path3437" d="M0,330.052c2.26,81.286 60.905,82.497 85.887,83.21l-57.704,-134.763l-28.183,51.553Z" style="fill:#9e1209;"/><path id="path3448" d="M252.469,144.386c36.866,22.659 111.163,68.165 112.67,69.002c2.341,1.318 32.032,-50.067 38.769,-79.108l-151.439,10.106Z" style="fill:url(#_Radial13);"/><path id="path3459" d="M133.548,254.543l63.939,123.358c37.807,-20.504 67.412,-45.485 94.528,-72.245l-158.467,-51.113Z" style="fill:url(#_Radial14);"/><path id="path3472" d="M27.931,278.666l-9.059,107.876c17.094,23.35 40.611,25.379 65.278,23.559c-17.847,-44.418 -53.499,-133.234 -56.219,-131.435Z" style="fill:url(#_Linear15);"/><path id="path3485" d="M284.336,36.844l127.02,17.826c-6.779,-28.726 -27.596,-47.263 -63.081,-53.059l-63.939,35.233Z" style="fill:url(#_Linear16);"/></g><defs><linearGradient id="_Linear1" x1="0" y1="0" x2="1" y2="0" gradientUnits="userSpaceOnUse" gradientTransform="matrix(-87.4504,-154.398,154.398,-87.4504,364.205,450.981)"><stop offset="0" style="stop-color:#fb7655;stop-opacity:1"/><stop offset="0" style="stop-color:#fb7655;stop-opacity:1"/><stop offset="0.41" style="stop-color:#e42b1e;stop-opacity:1"/><stop offset="0.99" style="stop-color:#900;stop-opacity:1"/><stop offset="1" style="stop-color:#900;stop-opacity:1"/></linearGradient><linearGradient id="_Linear2" x1="0" y1="0" x2="1" y2="0" gradientUnits="userSpaceOnUse" gradientTransform="matrix(-112.704,-75.6311,75.6311,-112.704,407.768,321.28)"><stop offset="0" style="stop-color:#871101;stop-opacity:1"/><stop offset="0" style="stop-color:#871101;stop-opacity:1"/><stop offset="0.99" style="stop-color:#911209;stop-opacity:1"/><stop offset="1" style="stop-color:#911209;stop-opacity:1"/></linearGradient><linearGradient id="_Linear3" x1="0" y1="0" x2="1" y2="0" gradientUnits="userSpaceOnUse" gradientTransform="matrix(-112.7,-75.6288,75.6288,-112.7,317.593,455.66)"><stop offset="0" style="stop-color:#871101;stop-opacity:1"/><stop offset="0" style="stop-color:#871101;stop-opacity:1"/><stop offset="0.99" style="stop-color:#911209;stop-opacity:1"/><stop offset="1" style="stop-color:#911209;stop-opacity:1"/></linearGradient><linearGradient id="_Linear4" x1="0" y1="0" x2="1" y2="0" gradientUnits="userSpaceOnUse" gradientTransform="matrix(17.4715,113.548,-113.548,17.4715,80.9622,266.532)"><stop offset="0" style="stop-color:#fff;stop-opacity:1"/><stop offset="0" style="stop-color:#fff;stop-opacity:1"/><stop offset="0.23" style="stop-color:#e57252;stop-opacity:1"/><stop offset="0.46" style="stop-color:#de3b20;stop-opacity:1"/><stop offset="0.99" style="stop-color:#a60003;stop-opacity:1"/><stop offset="1" style="stop-color:#a60003;stop-opacity:1"/></linearGradient><linearGradient id="_Linear5" x1="0" y1="0" x2="1" y2="0" gradientUnits="userSpaceOnUse" gradientTransform="matrix(6.43743,115.883,-115.883,6.43743,201.133,160.507)"><stop offset="0" style="stop-color:#fff;stop-opacity:1"/><stop offset="0" style="stop-color:#fff;stop-opacity:1"/><stop offset="0.23" style="stop-color:#e4714e;stop-opacity:1"/><stop offset="0.56" style="stop-color:#be1a0d;stop-opacity:1"/><stop offset="0.99" style="stop-color:#a80d00;stop-opacity:1"/><stop offset="1" style="stop-color:#a80d00;stop-opacity:1"/></linearGradient><linearGradient id="_Linear6" x1="0" y1="0" x2="1" y2="0" gradientUnits="userSpaceOnUse" gradientTransform="matrix(19.2719,83.0521,-83.0521,19.2719,307.776,53.3962)"><stop offset="0" style="stop-color:#fff;stop-opacity:1"/><stop offset="0" style="stop-color:#fff;stop-opacity:1"/><stop offset="0.18" style="stop-color:#e46342;stop-opacity:1"/><stop offset="0.4" style="stop-color:#c82410;stop-opacity:1"/><stop offset="0.99" style="stop-color:#a80d00;stop-opacity:1"/><stop offset="1" style="stop-color:#a80d00;stop-opacity:1"/></linearGradient><linearGradient id="_Linear7" x1="0" y1="0" x2="1" y2="0" gradientUnits="userSpaceOnUse" gradientTransform="matrix(83.0464,-41.5233,41.5233,83.0464,248.927,24.1476)"><stop offset="0" style="stop-color:#fff;stop-opacity:1"/><stop offset="0" style="stop-color:#fff;stop-opacity:1"/><stop offset="0.54" style="stop-color:#c81f11;stop-opacity:1"/><stop offset="0.99" style="stop-color:#bf0905;stop-opacity:1"/><stop offset="1" style="stop-color:#bf0905;stop-opacity:1"/></linearGradient><linearGradient id="_Linear8" x1="0" y1="0" x2="1" y2="0" gradientUnits="userSpaceOnUse" gradientTransform="matrix(6.83516,68.4334,-68.4334,6.83516,8.16666,237.584)"><stop offset="0" style="stop-color:#fff;stop-opacity:1"/><stop offset="0" style="stop-color:#fff;stop-opacity:1"/><stop offset="0.31" style="stop-color:#de4024;stop-opacity:1"/><stop offset="0.99" style="stop-color:#bf190b;stop-opacity:1"/><stop offset="1" style="stop-color:#bf190b;stop-opacity:1"/></linearGradient><linearGradient id="_Linear9" x1="0" y1="0" x2="1" y2="0" gradientUnits="userSpaceOnUse" gradientTransform="matrix(321.308,-330.394,330.394,321.308,-38.8231,324.517)"><stop offset="0" style="stop-color:#bd0012;stop-opacity:1"/><stop offset="0" style="stop-color:#bd0012;stop-opacity:1"/><stop offset="0.07" style="stop-color:#fff;stop-opacity:1"/><stop offset="0.17" style="stop-color:#fff;stop-opacity:1"/><stop offset="0.27" style="stop-color:#c82f1c;stop-opacity:1"/><stop offset="0.33" style="stop-color:#820c01;stop-opacity:1"/><stop offset="0.46" style="stop-color:#a31601;stop-opacity:1"/><stop offset="0.72" style="stop-color:#b31301;stop-opacity:1"/><stop offset="0.99" style="stop-color:#e82609;stop-opacity:1"/><stop offset="1" style="stop-color:#e82609;stop-opacity:1"/></linearGradient><linearGradient id="_Linear10" x1="0" y1="0" x2="1" y2="0" gradientUnits="userSpaceOnUse" gradientTransform="matrix(-96.781,-23.8863,23.8863,-96.781,207.289,357.843)"><stop offset="0" style="stop-color:#8c0c01;stop-opacity:1"/><stop offset="0" style="stop-color:#8c0c01;stop-opacity:1"/><stop offset="0.54" style="stop-color:#990c00;stop-opacity:1"/><stop offset="0.99" style="stop-color:#a80d0e;stop-opacity:1"/><stop offset="1" style="stop-color:#a80d0e;stop-opacity:1"/></linearGradient><linearGradient id="_Linear11" x1="0" y1="0" x2="1" y2="0" gradientUnits="userSpaceOnUse" gradientTransform="matrix(-85.9771,-77.0587,77.0587,-85.9771,373.52,241.685)"><stop offset="0" style="stop-color:#7e110b;stop-opacity:1"/><stop offset="0" style="stop-color:#7e110b;stop-opacity:1"/><stop offset="0.99" style="stop-color:#9e0c00;stop-opacity:1"/><stop offset="1" style="stop-color:#9e0c00;stop-opacity:1"/></linearGradient><linearGradient id="_Linear12" x1="0" y1="0" x2="1" y2="0" gradientUnits="userSpaceOnUse" gradientTransform="matrix(-42.8268,-45.785,45.785,-42.8268,405.108,100.296)"><stop offset="0" style="stop-color:#79130d;stop-opacity:1"/><stop offset="0" style="stop-color:#79130d;stop-opacity:1"/><stop offset="0.99" style="stop-color:#9e120b;stop-opacity:1"/><stop offset="1" style="stop-color:#9e120b;stop-opacity:1"/></linearGradient><radialGradient id="_Radial13" cx="0" cy="0" r="1" gradientUnits="userSpaceOnUse" gradientTransform="matrix(105.36,0,0,105.36,300.931,166.1)"><stop offset="0" style="stop-color:#a80d00;stop-opacity:1"/><stop offset="0" style="stop-color:#a80d00;stop-opacity:1"/><stop offset="0.99" style="stop-color:#7e0e08;stop-opacity:1"/><stop offset="1" style="stop-color:#7e0e08;stop-opacity:1"/></radialGradient><radialGradient id="_Radial14" cx="0" cy="0" r="1" gradientUnits="userSpaceOnUse" gradientTransform="matrix(140.063,0,0,140.063,155.019,304.947)"><stop offset="0" style="stop-color:#a30c00;stop-opacity:1"/><stop offset="0" style="stop-color:#a30c00;stop-opacity:1"/><stop offset="0.99" style="stop-color:#800e08;stop-opacity:1"/><stop offset="1" style="stop-color:#800e08;stop-opacity:1"/></radialGradient><linearGradient id="_Linear15" x1="0" y1="0" x2="1" y2="0" gradientUnits="userSpaceOnUse" gradientTransform="matrix(-34.9012,-118.408,118.408,-34.9012,55.8,412.875)"><stop offset="0" style="stop-color:#8b2114;stop-opacity:1"/><stop offset="0" style="stop-color:#8b2114;stop-opacity:1"/><stop offset="0.43" style="stop-color:#9e100a;stop-opacity:1"/><stop offset="0.99" style="stop-color:#b3100c;stop-opacity:1"/><stop offset="1" style="stop-color:#b3100c;stop-opacity:1"/></linearGradient><linearGradient id="_Linear16" x1="0" y1="0" x2="1" y2="0" gradientUnits="userSpaceOnUse" gradientTransform="matrix(78.2456,34.5388,-34.5388,78.2456,323.547,20.4996)"><stop offset="0" style="stop-color:#b31000;stop-opacity:1"/><stop offset="0" style="stop-color:#b31000;stop-opacity:1"/><stop offset="0.44" style="stop-color:#910f08;stop-opacity:1"/><stop offset="0.99" style="stop-color:#791c12;stop-opacity:1"/><stop offset="1" style="stop-color:#791c12;stop-opacity:1"/></linearGradient></defs></svg>