<?xml version="1.0" encoding="UTF-8" standalone="no"?>
<!DOCTYPE svg PUBLIC "-//W3C//DTD SVG 1.1//EN" "http://www.w3.org/Graphics/SVG/1.1/DTD/svg11.dtd">
<svg width="100%" height="100%" viewBox="0 0 414 414" version="1.1" xmlns="http://www.w3.org/2000/svg" xmlns:xlink="http://www.w3.org/1999/xlink" xml:space="preserve" xmlns:serif="http://www.serif.com/" style="fill-rule:evenodd;clip-rule:evenodd;stroke-linejoin:round;stroke-miterlimit:2;">
    <g transform="matrix(1,0,0,1,-264.348,-2962.57)">
        <g transform="matrix(1,0,0,1,509.145,512.142)">
            <g id="Linkedin" transform="matrix(3.38838,0,0,3.38838,-254.962,2440.26)">
                <path d="M116,3L12,3C7.12,2.95 3.06,6.92 3,11.8L3,116.22C3.071,121.093 7.127,125.05 12,125L116,125C120.88,125.039 124.935,121.07 125,116.19L125,11.77C124.913,6.905 120.865,2.961 116,3ZM39.17,107L21.06,107L21.06,48.73L39.17,48.73L39.17,107ZM30.17,40.79C30.167,40.79 30.163,40.79 30.16,40.79C24.4,40.79 19.66,36.05 19.66,30.29C19.66,24.53 24.4,19.79 30.16,19.79C35.92,19.79 40.66,24.53 40.66,30.29C40.649,36.043 35.913,40.77 30.16,40.77C30.147,40.77 30.133,40.77 30.12,40.77L30.17,40.79ZM107,107L88.89,107L88.89,78.65C88.89,71.9 88.77,63.21 79.48,63.21C70.19,63.21 68.61,70.57 68.61,78.21L68.61,107L50.53,107L50.53,48.73L67.89,48.73L67.89,56.73L68.13,56.73C70.55,52.15 76.45,47.32 85.26,47.32C103.6,47.28 107,59.35 107,75L107,107Z" style="fill-rule:nonzero;"/>
            </g>
        </g>
    </g>
</svg>
