<?xml version="1.0" encoding="UTF-8" standalone="no"?><!DOCTYPE svg PUBLIC "-//W3C//DTD SVG 1.1//EN" "http://www.w3.org/Graphics/SVG/1.1/DTD/svg11.dtd"><svg width="100%" height="100%" viewBox="0 0 411 414" version="1.1" xmlns="http://www.w3.org/2000/svg" xmlns:xlink="http://www.w3.org/1999/xlink" xml:space="preserve" xmlns:serif="http://www.serif.com/" style="fill-rule:evenodd;clip-rule:evenodd;stroke-linecap:round;stroke-linejoin:round;stroke-miterlimit:1.5;"><g id="Safe"><g><path d="M404.46,-0c3.261,-0 5.905,2.644 5.905,5.906c0,46.635 0,354.939 0,401.574c0,3.262 -2.644,5.906 -5.905,5.906c-41.667,-0 -290.926,-0 -332.593,-0c-3.261,-0 -5.905,-2.644 -5.905,-5.906c-0,-46.506 -0,-353.228 -0,-401.18c-0,-1.671 0.664,-3.273 1.845,-4.455c1.182,-1.181 2.784,-1.845 4.455,-1.845c42.821,-0 290.661,-0 332.198,-0Z" style="fill:#99c3d4;"/><g><g><g><path d="M275.537,32.185c3.261,0 5.905,2.644 5.905,5.906l0,89.888c0,3.261 -2.644,5.905 -5.905,5.905l-74.746,0c-3.262,0 -5.906,-2.644 -5.906,-5.905l0,-89.493c0,-1.671 0.664,-3.274 1.846,-4.455c1.181,-1.182 2.784,-1.846 4.455,-1.846c16.117,0 58.675,0 74.351,0Z" style="fill:#6c909b;"/><path d="M254.885,56.448c3.261,-0 5.905,2.644 5.905,5.905l0,41.364c0,3.261 -2.644,5.905 -5.905,5.905c-8.674,0 -24.768,0 -33.442,0c-3.262,0 -5.906,-2.644 -5.906,-5.905c0,-10.101 0,-30.605 0,-40.969c0,-3.48 2.821,-6.3 6.3,-6.3l33.048,-0Z" style="fill:#496f7f;"/></g><g><path d="M378.94,32.185c3.262,0 5.906,2.644 5.906,5.906l-0,89.888c-0,3.261 -2.644,5.905 -5.906,5.905l-74.746,0c-3.261,0 -5.905,-2.644 -5.905,-5.905l-0,-89.493c-0,-1.671 0.663,-3.274 1.845,-4.455c1.182,-1.182 2.784,-1.846 4.455,-1.846c16.117,0 58.676,0 74.351,0Z" style="fill:#6c909b;"/><path d="M358.288,56.448c3.262,-0 5.906,2.644 5.906,5.905c-0,10.23 -0,31.133 -0,41.364c-0,3.261 -2.644,5.905 -5.906,5.905c-8.674,0 -24.768,0 -33.442,0c-3.261,0 -5.905,-2.644 -5.905,-5.905c-0,-10.101 -0,-30.605 -0,-40.969c-0,-3.48 2.82,-6.3 6.3,-6.3l33.047,-0Z" style="fill:#496f7f;"/></g><g><path d="M172.133,32.185c3.262,0 5.906,2.644 5.906,5.906l-0,89.888c-0,3.261 -2.644,5.905 -5.906,5.905l-74.746,0c-3.261,0 -5.905,-2.644 -5.905,-5.905l-0,-89.493c-0,-1.671 0.664,-3.274 1.845,-4.455c1.182,-1.182 2.784,-1.846 4.455,-1.846c16.117,0 58.676,0 74.351,0Z" style="fill:#6c909b;"/><path d="M151.481,56.448c3.262,-0 5.906,2.644 5.906,5.905l-0,41.364c-0,3.261 -2.644,5.905 -5.906,5.905c-8.674,0 -24.768,0 -33.442,0c-3.261,0 -5.905,-2.644 -5.905,-5.905c-0,-10.101 -0,-30.605 -0,-40.969c-0,-3.48 2.82,-6.3 6.3,-6.3l33.047,-0Z" style="fill:#496f7f;"/></g></g><g><g><path d="M275.537,155.843c3.261,0 5.905,2.644 5.905,5.906l0,89.888c0,3.262 -2.644,5.906 -5.905,5.906l-74.746,-0c-3.262,-0 -5.906,-2.644 -5.906,-5.906l0,-89.493c0,-1.671 0.664,-3.274 1.846,-4.455c1.181,-1.182 2.784,-1.846 4.455,-1.846c16.117,0 58.675,0 74.351,0Z" style="fill:#6c909b;"/><path d="M254.885,180.106c3.261,-0 5.905,2.644 5.905,5.905l0,41.364c0,3.261 -2.644,5.905 -5.905,5.905c-8.674,0 -24.768,0 -33.442,0c-3.262,0 -5.906,-2.644 -5.906,-5.905c0,-10.101 0,-30.604 0,-40.969c0,-3.48 2.821,-6.3 6.3,-6.3l33.048,-0Z" style="fill:#496f7f;"/></g><g><path d="M378.94,155.843c3.262,0 5.906,2.644 5.906,5.906l-0,89.888c-0,3.262 -2.644,5.906 -5.906,5.906l-74.746,-0c-3.261,-0 -5.905,-2.644 -5.905,-5.906l-0,-89.493c-0,-1.671 0.663,-3.274 1.845,-4.455c1.182,-1.182 2.784,-1.846 4.455,-1.846c16.117,0 58.676,0 74.351,0Z" style="fill:#6c909b;"/><path d="M358.288,180.106c3.262,-0 5.906,2.644 5.906,5.905l-0,41.364c-0,3.261 -2.644,5.905 -5.906,5.905c-8.674,0 -24.768,0 -33.442,0c-3.261,0 -5.905,-2.644 -5.905,-5.905c-0,-10.101 -0,-30.604 -0,-40.969c-0,-3.48 2.82,-6.3 6.3,-6.3l33.047,-0Z" style="fill:#496f7f;"/></g><g><path d="M172.133,155.843c3.262,0 5.906,2.644 5.906,5.906l-0,89.888c-0,3.262 -2.644,5.906 -5.906,5.906l-74.746,-0c-3.261,-0 -5.905,-2.644 -5.905,-5.906l-0,-89.493c-0,-1.671 0.664,-3.274 1.845,-4.455c1.182,-1.182 2.784,-1.846 4.455,-1.846c16.117,0 58.676,0 74.351,0Z" style="fill:#6c909b;"/><path d="M151.481,180.106c3.262,-0 5.906,2.644 5.906,5.905l-0,41.364c-0,3.261 -2.644,5.905 -5.906,5.905c-8.674,0 -24.768,0 -33.442,0c-3.261,0 -5.905,-2.644 -5.905,-5.905c-0,-10.101 -0,-30.604 -0,-40.969c-0,-3.48 2.82,-6.3 6.3,-6.3l33.047,-0Z" style="fill:#496f7f;"/></g></g><g><g><path d="M275.537,279.501c3.261,0 5.905,2.644 5.905,5.906l0,89.888c0,3.262 -2.644,5.906 -5.905,5.906l-74.746,-0c-3.262,-0 -5.906,-2.644 -5.906,-5.906l0,-89.493c0,-1.671 0.664,-3.274 1.846,-4.455c1.181,-1.182 2.784,-1.846 4.455,-1.846c16.117,0 58.675,0 74.351,0Z" style="fill:#6c909b;"/><path d="M254.885,303.764c3.261,-0 5.905,2.644 5.905,5.905l0,41.364c0,3.261 -2.644,5.905 -5.905,5.905c-8.674,0 -24.768,0 -33.442,0c-3.262,0 -5.906,-2.644 -5.906,-5.905c0,-10.101 0,-30.604 0,-40.969c0,-3.48 2.821,-6.3 6.3,-6.3l33.048,-0Z" style="fill:#496f7f;"/></g><g><path d="M378.94,279.501c3.262,0 5.906,2.644 5.906,5.906l-0,89.888c-0,3.262 -2.644,5.906 -5.906,5.906l-74.746,-0c-3.261,-0 -5.905,-2.644 -5.905,-5.906l-0,-89.493c-0,-1.671 0.663,-3.274 1.845,-4.455c1.182,-1.182 2.784,-1.846 4.455,-1.846c16.117,0 58.676,0 74.351,0Z" style="fill:#6c909b;"/><path d="M358.288,303.764c3.262,-0 5.906,2.644 5.906,5.905c-0,10.231 -0,31.133 -0,41.364c-0,3.261 -2.644,5.905 -5.906,5.905c-8.674,0 -24.768,0 -33.442,0c-3.261,0 -5.905,-2.644 -5.905,-5.905c-0,-10.101 -0,-30.604 -0,-40.969c-0,-3.48 2.82,-6.3 6.3,-6.3l33.047,-0Z" style="fill:#496f7f;"/></g><g><path d="M172.133,279.501c3.262,0 5.906,2.644 5.906,5.906l-0,89.888c-0,3.262 -2.644,5.906 -5.906,5.906l-74.746,-0c-3.261,-0 -5.905,-2.644 -5.905,-5.906l-0,-89.493c-0,-1.671 0.664,-3.274 1.845,-4.455c1.182,-1.182 2.784,-1.846 4.455,-1.846c16.117,0 58.676,0 74.351,0Z" style="fill:#6c909b;"/><path d="M151.481,303.764c3.262,-0 5.906,2.644 5.906,5.905l-0,41.364c-0,3.261 -2.644,5.905 -5.906,5.905c-8.674,0 -24.768,0 -33.442,0c-3.261,0 -5.905,-2.644 -5.905,-5.905c-0,-10.101 -0,-30.604 -0,-40.969c-0,-3.48 2.82,-6.3 6.3,-6.3l33.047,-0Z" style="fill:#496f7f;"/></g></g></g></g><g><path d="M210.942,113.758l0,188.37c0,6.859 -5.568,12.428 -12.427,12.428l-183.566,-0c-6.859,-0 -12.427,-5.569 -12.427,-12.428l-0,-188.37c-0,-6.859 5.568,-12.428 12.427,-12.428l183.566,0c6.859,0 12.427,5.569 12.427,12.428Z" style="fill:#3a73b9;stroke:#c8eafb;stroke-width:5.04px;"/><g transform="matrix(200.242,0,0,200.242,167.01,277.314)"></g><text x="46.454px" y="277.314px" style="font-family:'Monospace821BT-Bold', 'Monospac821 BT';font-weight:700;font-size:200.242px;fill:#fff;">S</text></g></g></svg>