<?xml version="1.0" encoding="UTF-8" standalone="no"?><!DOCTYPE svg PUBLIC "-//W3C//DTD SVG 1.1//EN" "http://www.w3.org/Graphics/SVG/1.1/DTD/svg11.dtd"><svg width="100%" height="100%" viewBox="0 0 389 414" version="1.1" xmlns="http://www.w3.org/2000/svg" xmlns:xlink="http://www.w3.org/1999/xlink" xml:space="preserve" xmlns:serif="http://www.serif.com/" style="fill-rule:evenodd;clip-rule:evenodd;stroke-linejoin:round;stroke-miterlimit:2;"><g id="Autocad"><path d="M388.549,413.386l0,-349.319l-356.623,0l0,322.914c0,10.856 8.911,25.855 19.722,25.855c73.168,-0 336.901,0.55 336.901,0.55Z" style="fill:#780f29;"/><path d="M62.769,0l-62.769,38.803l0,288.737l63.34,-37.662l-0.571,-289.878Z" style="fill:#e95883;"/><path d="M62.766,0.168l0.367,289.879l297.182,0l-0,-267.966c-0,-9.009 -7.425,-21.456 -16.434,-21.456c-60.974,0 -281.115,-0.457 -281.115,-0.457Z" style="fill:#e61951;"/><g><path d="M137.77,221.821l39.198,0l9.252,-35.546l47.233,-0l11.443,35.546l40.415,0l-48.206,-160.688l-53.563,-0l-45.772,160.688Z" style="fill:#fff;"/><path d="M211.227,89.232l16.675,69.149l-32.722,0l16.047,-69.149Z" style="fill:#e61951;"/></g><g transform="matrix(85.4319,0,0,85.4319,284.094,377.547)"></g><text x="136.382px" y="377.547px" style="font-family:'Swiss721BT-BlackCondensed', 'Swis721 BlkCn BT';font-stretch:condensed;font-size:85.432px;fill:#fff;">CAD</text></g></svg>