<?xml version="1.0" encoding="UTF-8" standalone="no"?><!DOCTYPE svg PUBLIC "-//W3C//DTD SVG 1.1//EN" "http://www.w3.org/Graphics/SVG/1.1/DTD/svg11.dtd"><svg width="100%" height="100%" viewBox="0 0 674 414" version="1.1" xmlns="http://www.w3.org/2000/svg" xmlns:xlink="http://www.w3.org/1999/xlink" xml:space="preserve" xmlns:serif="http://www.serif.com/" style="fill-rule:evenodd;clip-rule:evenodd;stroke-linejoin:round;stroke-miterlimit:2;"><g id="Ruby-on-Rails" serif:id="Ruby on Rails"><path d="M20.788,413.386l234.608,-0c0,-0 -44.842,-204.614 103.644,-287.47c32.37,-15.739 135.419,-74.54 304.1,50.189c5.345,-4.455 10.394,-8.019 10.394,-8.019c-0,0 -154.426,-154.128 -326.373,-136.904c-86.716,7.721 -193.032,86.419 -255.396,190.36c-62.365,103.94 -70.977,191.844 -70.977,191.844Zm488.817,-365.573l1.188,-19.898c-2.673,-1.484 -10.097,-5.048 -28.807,-10.394l-1.187,19.601c9.8,3.266 19.303,6.83 28.806,10.691Z" style="fill:#c00;"/><path d="M481.393,110.771l-1.188,18.709c9.8,0.297 19.6,1.485 29.4,3.564l1.188,-18.413c-10.097,-2.078 -19.897,-3.266 -29.4,-3.86Zm-109.88,-92.656l2.969,0l-5.939,-18.115c-9.206,0 -18.709,0.594 -28.509,1.782l5.642,17.521c8.612,-0.891 17.224,-1.188 25.837,-1.188Zm14.254,109.286l6.831,20.491c8.612,-4.157 17.224,-7.721 25.836,-10.394l-6.533,-19.6c-10.097,2.97 -18.709,6.237 -26.134,9.503Zm-134.825,-78.104l-13.364,-20.491c-7.424,3.861 -15.146,8.019 -23.164,12.77l13.661,20.788c7.721,-4.751 15.146,-9.206 22.867,-13.067Zm60.879,133.638l14.255,21.382c5.048,-7.424 10.988,-14.255 17.521,-21.085l-13.363,-20.194c-6.831,6.236 -13.067,13.067 -18.413,19.897Zm-43.061,95.625l24.055,19.007c1.188,-11.582 3.267,-23.164 6.236,-34.746l-21.382,-16.928c-3.86,10.988 -6.533,21.976 -8.909,32.667Zm-130.074,-141.062l-21.085,-18.412c-7.721,7.424 -15.145,14.849 -21.976,22.273l22.867,19.6c6.236,-8.018 13.067,-16.036 20.194,-23.461Zm-89.686,132.747l-34.151,-12.473c-5.643,12.77 -11.879,27.619 -14.849,35.637l34.152,12.473c3.86,-10.097 10.097,-24.649 14.848,-35.637Zm215.306,83.746c0.594,15.74 2.078,28.51 3.563,37.419l35.637,12.77c-2.673,-11.582 -5.346,-24.649 -7.127,-38.607l-32.073,-11.582Z" style="fill:#c00;"/></g></svg>