<?xml version="1.0" encoding="UTF-8" standalone="no"?>
<!DOCTYPE svg PUBLIC "-//W3C//DTD SVG 1.1//EN" "http://www.w3.org/Graphics/SVG/1.1/DTD/svg11.dtd">
<svg width="100%" height="100%" viewBox="0 0 848 268" version="1.1" xmlns="http://www.w3.org/2000/svg" xmlns:xlink="http://www.w3.org/1999/xlink" xml:space="preserve" xmlns:serif="http://www.serif.com/" style="fill-rule:evenodd;clip-rule:evenodd;stroke-linecap:round;stroke-linejoin:round;stroke-miterlimit:1.5;">
    <g transform="matrix(1,0,0,1,-1750.71,-2929.05)">
        <g transform="matrix(1,0,0,1,1897.05,2905.43)">
            <g transform="matrix(1,0,0,1,0,-33.9912)">
                <g transform="matrix(2.35583,0,0,2.35583,-167.553,90.213)">
                    <path d="M64,1.512C40.507,1.512 21.455,20.559 21.455,44.057C21.455,62.854 33.645,78.802 50.55,84.427C52.676,84.821 53.457,83.504 53.457,82.38C53.457,81.366 53.417,78.014 53.399,74.46C41.562,77.033 39.065,69.44 39.065,69.44C37.13,64.522 34.341,63.214 34.341,63.214C30.481,60.574 34.631,60.628 34.631,60.628C38.904,60.928 41.154,65.013 41.154,65.013C44.948,71.517 51.107,69.636 53.534,68.549C53.917,65.799 55.019,63.921 56.236,62.859C46.786,61.784 36.852,58.135 36.852,41.833C36.852,37.188 38.514,33.393 41.236,30.413C40.794,29.341 39.338,25.013 41.648,19.153C41.648,19.153 45.22,18.011 53.348,23.516C56.743,22.573 60.383,22.1 63.998,22.084C67.614,22.101 71.256,22.574 74.656,23.516C82.776,18.012 86.344,19.154 86.344,19.154C88.66,25.014 87.204,29.341 86.762,30.414C89.49,33.392 91.14,37.188 91.14,41.834C91.14,58.174 81.187,61.772 71.713,62.824C73.239,64.144 74.599,66.734 74.599,70.704C74.599,76.396 74.551,80.977 74.551,82.378C74.551,83.508 75.317,84.836 77.473,84.418C94.369,78.786 106.543,62.844 106.543,44.053C106.545,20.56 87.497,1.512 64,1.512Z"/>
                </g>
                <g transform="matrix(2.35583,0,0,2.35583,-167.553,90.213)">
                    <path d="M37.57,62.596C37.475,62.808 37.142,62.871 36.84,62.726C36.53,62.586 36.358,62.299 36.458,62.086C36.548,61.87 36.882,61.809 37.191,61.954C37.501,62.094 37.677,62.384 37.571,62.596L37.57,62.596ZM39.293,64.52C39.09,64.707 38.693,64.62 38.423,64.322C38.145,64.025 38.093,63.628 38.299,63.438C38.507,63.25 38.892,63.338 39.169,63.635C39.449,63.935 39.504,64.328 39.292,64.519L39.293,64.52ZM40.97,66.968C40.71,67.15 40.283,66.98 40.02,66.601C39.758,66.224 39.758,65.771 40.025,65.588C40.289,65.406 40.709,65.57 40.975,65.945C41.237,66.33 41.237,66.785 40.97,66.969L40.97,66.968ZM43.268,69.336C43.035,69.593 42.538,69.524 42.175,69.173C41.803,68.83 41.7,68.343 41.933,68.086C42.17,67.829 42.669,67.901 43.035,68.249C43.405,68.591 43.517,69.079 43.268,69.335L43.268,69.336ZM46.44,70.71C46.336,71.044 45.858,71.195 45.376,71.054C44.894,70.908 44.58,70.518 44.676,70.182C44.776,69.846 45.258,69.689 45.743,69.84C46.223,69.984 46.538,70.37 46.439,70.71L46.44,70.71ZM49.92,70.965C49.933,71.315 49.524,71.607 49.018,71.613C48.51,71.625 48.098,71.341 48.092,70.995C48.092,70.641 48.492,70.353 49,70.345C49.506,70.335 49.92,70.617 49.92,70.965ZM53.16,70.414C53.22,70.756 52.87,71.108 52.367,71.201C51.873,71.293 51.417,71.081 51.353,70.741C51.293,70.391 51.65,70.041 52.143,69.949C52.646,69.861 53.096,70.067 53.16,70.415L53.16,70.414Z" style="fill-rule:nonzero;"/>
                </g>
            </g>
        </g>
        <g transform="matrix(1,0,0,1,1897.05,2905.43)">
            <g transform="matrix(1,0,0,1,-1919.67,-2663.63)">
                <path d="M1907.24,2949.49C1836.42,2949.49 1778.92,2891.99 1778.92,2821.17C1778.92,2750.35 1836.42,2692.85 1907.24,2692.85L2597.82,2692.85C2602.52,2692.85 2607.03,2694.71 2610.35,2698.03C2613.67,2701.36 2615.54,2705.86 2615.54,2710.56C2615.54,2757.52 2615.54,2884.81 2615.54,2931.78C2615.54,2936.47 2613.67,2940.98 2610.35,2944.3C2607.03,2947.62 2602.52,2949.49 2597.82,2949.49C2488.22,2949.49 1907.24,2949.49 1907.24,2949.49Z" style="fill:none;stroke:black;stroke-width:11.18px;"/>
            </g>
        </g>
        <g transform="matrix(1,0,0,1,778.164,3002.84)">
            <g transform="matrix(1,0,0,1,0,-33.9193)">
                <g transform="matrix(1.63296,0,0,1.63296,1236.21,-145.935)">
                    <path d="M24.855,108.302L14.155,108.302C13.881,108.302 13.655,108.528 13.655,108.802L13.655,114.034C13.655,114.308 13.881,114.534 14.155,114.534L18.328,114.534L18.328,121.034C18.328,121.034 17.391,121.354 14.798,121.354C11.742,121.354 7.471,120.238 7.471,110.846C7.471,101.453 11.919,100.216 16.095,100.216C19.709,100.216 21.265,100.852 22.257,101.159C22.567,101.253 22.857,100.943 22.857,100.667L24.05,95.612C24.054,95.458 23.982,95.313 23.858,95.222C23.455,94.934 21.001,93.562 14.8,93.562C7.656,93.562 0.328,96.6 0.328,111.212C0.328,125.822 8.718,127.999 15.788,127.999C21.642,127.999 25.193,125.497 25.193,125.497C25.339,125.417 25.355,125.212 25.355,125.117L25.355,108.801C25.355,108.527 25.129,108.301 24.855,108.301L24.855,108.302ZM79.506,94.81C79.506,94.81 73.48,94.81 73.48,94.81C73.206,94.811 72.982,95.036 72.982,95.31C72.982,95.311 72.982,95.312 72.982,95.313L72.984,106.957L63.592,106.957L63.592,95.313C63.592,95.312 63.592,95.311 63.592,95.31C63.592,95.037 63.368,94.812 63.095,94.81L57.07,94.81C56.796,94.811 56.572,95.036 56.572,95.31C56.572,95.311 56.572,95.312 56.572,95.313L56.572,126.843C56.572,127.12 56.796,127.346 57.07,127.346L63.095,127.346C63.368,127.344 63.592,127.119 63.592,126.846C63.592,126.845 63.592,126.843 63.592,126.842L63.592,113.356L72.984,113.356L72.968,126.842C72.968,127.12 73.192,127.346 73.468,127.346L79.506,127.346C79.779,127.344 80.003,127.119 80.003,126.846C80.003,126.845 80.003,126.843 80.003,126.842L80.003,95.312C80.003,95.31 80.003,95.309 80.003,95.307C80.003,95.034 79.779,94.81 79.506,94.81ZM32.34,95.527C30.196,95.527 28.456,97.28 28.456,99.45C28.456,101.617 30.196,103.375 32.34,103.375C34.486,103.375 36.225,101.617 36.225,99.45C36.225,97.28 34.485,95.527 32.34,95.527ZM35.296,105.135L29.29,105.135C29.014,105.135 28.768,105.419 28.768,105.695L28.768,126.547C28.768,127.16 29.15,127.342 29.644,127.342L35.054,127.342C35.649,127.342 35.794,127.05 35.794,126.537L35.794,105.638C35.794,105.637 35.794,105.637 35.794,105.636C35.794,105.362 35.57,105.137 35.296,105.136L35.296,105.135ZM102.902,105.182L96.922,105.182C96.649,105.184 96.426,105.409 96.426,105.682C96.426,105.683 96.426,105.685 96.426,105.686L96.426,121.146C96.426,121.146 94.906,122.256 92.751,122.256C90.596,122.256 90.024,121.279 90.024,119.168L90.024,105.686C90.024,105.685 90.024,105.683 90.024,105.682C90.024,105.409 89.8,105.184 89.527,105.182L83.459,105.182C83.184,105.184 82.96,105.411 82.961,105.686L82.961,120.188C82.961,126.458 86.456,127.992 91.263,127.992C95.207,127.992 98.387,125.812 98.387,125.812C98.387,125.812 98.537,126.962 98.607,127.097C98.677,127.233 98.854,127.37 99.047,127.37L102.907,127.353C103.182,127.352 103.407,127.126 103.407,126.851C103.407,126.85 103.407,126.85 103.407,126.849L103.404,105.683C103.403,105.409 103.178,105.183 102.904,105.181L102.902,105.182ZM119.244,104.474C115.848,104.474 113.538,105.989 113.538,105.989L113.538,95.312C113.538,95.311 113.538,95.31 113.538,95.309C113.538,95.036 113.314,94.811 113.041,94.809C113.041,94.809 107,94.809 107,94.809C106.726,94.809 106.5,95.035 106.5,95.309C106.5,95.31 106.5,95.311 106.5,95.312L106.5,126.842C106.5,126.843 106.5,126.844 106.5,126.845C106.5,127.119 106.726,127.345 107,127.345C107,127.345 111.192,127.345 111.192,127.345C111.382,127.345 111.524,127.248 111.629,127.077C111.732,126.907 111.883,125.623 111.883,125.623C111.883,125.623 114.353,127.963 119.031,127.963C124.521,127.963 127.671,125.179 127.671,115.461C127.671,105.743 122.641,104.473 119.243,104.473L119.244,104.474ZM116.884,122.238C114.811,122.175 113.404,121.234 113.404,121.234L113.404,111.249C113.404,111.249 114.792,110.399 116.494,110.245C118.647,110.052 120.722,110.703 120.722,115.839C120.722,121.256 119.787,122.325 116.885,122.237L116.884,122.238ZM53.195,122.12C52.932,122.12 52.258,122.227 51.565,122.227C49.345,122.227 48.592,121.195 48.592,119.859L48.592,110.993C48.592,110.993 53.112,110.993 53.112,110.993C53.386,110.993 53.612,110.767 53.612,110.493C53.612,110.492 53.612,110.49 53.612,110.489L53.612,105.633C53.612,105.632 53.612,105.632 53.612,105.631C53.612,105.357 53.386,105.131 53.112,105.131C53.112,105.131 48.592,105.131 48.592,105.131L48.585,99.161C48.585,98.934 48.469,98.821 48.207,98.821L42.047,98.821C41.809,98.821 41.68,98.927 41.68,99.156L41.68,105.326C41.68,105.326 38.593,106.071 38.385,106.131C38.172,106.193 38.025,106.389 38.025,106.611L38.025,110.488C38.025,110.489 38.025,110.49 38.025,110.491C38.025,110.764 38.249,110.989 38.522,110.991L41.68,110.991L41.68,120.319C41.68,127.249 46.54,127.929 49.82,127.929C51.317,127.929 53.11,127.449 53.406,127.339C53.586,127.272 53.689,127.087 53.689,126.886L53.693,122.621C53.689,122.348 53.466,122.124 53.193,122.119L53.195,122.12Z" style="fill-rule:nonzero;"/>
                </g>
                <g transform="matrix(1,0,0,1,-785.233,-3065.69)">
                    <path d="M2021.98,3224.14L2021.98,3146.59L2054.93,3146.59C2063.22,3146.59 2069.23,3147.3 2072.97,3148.71C2076.75,3150.08 2079.76,3152.55 2082.02,3156.11C2084.28,3159.67 2085.4,3163.75 2085.4,3168.33C2085.4,3174.15 2083.69,3178.96 2080.27,3182.77C2076.85,3186.55 2071.74,3188.93 2064.93,3189.91C2068.32,3191.89 2071.1,3194.06 2073.29,3196.42C2075.51,3198.78 2078.49,3202.98 2082.23,3209.01L2091.7,3224.14L2072.97,3224.14L2061.65,3207.26C2057.63,3201.23 2054.88,3197.44 2053.4,3195.89C2051.92,3194.3 2050.35,3193.23 2048.69,3192.66C2047.04,3192.07 2044.41,3191.76 2040.81,3191.76L2037.64,3191.76L2037.64,3224.14L2021.98,3224.14ZM2037.64,3179.39L2049.22,3179.39C2056.73,3179.39 2061.42,3179.07 2063.29,3178.43C2065.16,3177.8 2066.62,3176.71 2067.68,3175.16C2068.74,3173.6 2069.27,3171.66 2069.27,3169.34C2069.27,3166.73 2068.56,3164.63 2067.15,3163.04C2065.78,3161.42 2063.82,3160.4 2061.28,3159.97C2060.01,3159.8 2056.2,3159.71 2049.86,3159.71L2037.64,3159.71L2037.64,3179.39Z" style="fill-rule:nonzero;"/>
                    <path d="M2132.59,3206.26L2147.4,3208.74C2145.49,3214.18 2142.48,3218.32 2138.35,3221.18C2134.26,3224 2129.13,3225.41 2122.96,3225.41C2113.19,3225.41 2105.96,3222.22 2101.27,3215.83C2097.57,3210.72 2095.72,3204.27 2095.72,3196.47C2095.72,3187.16 2098.15,3179.88 2103.02,3174.63C2107.88,3169.34 2114.04,3166.69 2121.48,3166.69C2129.84,3166.69 2136.43,3169.46 2141.26,3175C2146.09,3180.5 2148.4,3188.94 2148.19,3200.34L2110.95,3200.34C2111.06,3204.74 2112.26,3208.18 2114.55,3210.65C2116.84,3213.08 2119.7,3214.3 2123.12,3214.3C2125.45,3214.3 2127.4,3213.66 2128.99,3212.39C2130.58,3211.13 2131.78,3209.08 2132.59,3206.26ZM2133.43,3191.24C2133.33,3186.93 2132.22,3183.67 2130.1,3181.45C2127.99,3179.19 2125.41,3178.07 2122.38,3178.07C2119.13,3178.07 2116.45,3179.25 2114.34,3181.61C2112.22,3183.97 2111.18,3187.18 2111.22,3191.24L2133.43,3191.24Z" style="fill-rule:nonzero;"/>
                    <path d="M2159.88,3167.96L2173.74,3167.96L2173.74,3176.21C2175.54,3173.39 2177.97,3171.1 2181.04,3169.34C2184.11,3167.57 2187.51,3166.69 2191.25,3166.69C2197.77,3166.69 2203.31,3169.25 2207.86,3174.36C2212.41,3179.48 2214.68,3186.6 2214.68,3195.73C2214.68,3205.11 2212.39,3212.41 2207.81,3217.63C2203.22,3222.82 2197.67,3225.41 2191.14,3225.41C2188.04,3225.41 2185.22,3224.79 2182.68,3223.56C2180.18,3222.32 2177.53,3220.21 2174.75,3217.21L2174.75,3245.51L2159.88,3245.51L2159.88,3167.96ZM2174.59,3195.1C2174.59,3201.41 2175.84,3206.08 2178.34,3209.12C2180.85,3212.11 2183.9,3213.61 2187.49,3213.61C2190.95,3213.61 2193.83,3212.24 2196.12,3209.49C2198.41,3206.7 2199.55,3202.15 2199.55,3195.84C2199.55,3189.95 2198.37,3185.58 2196.01,3182.72C2193.65,3179.86 2190.72,3178.43 2187.23,3178.43C2183.6,3178.43 2180.58,3179.85 2178.18,3182.67C2175.79,3185.45 2174.59,3189.6 2174.59,3195.1Z" style="fill-rule:nonzero;"/>
                    <path d="M2223.04,3195.26C2223.04,3190.32 2224.26,3185.54 2226.69,3180.92C2229.12,3176.3 2232.56,3172.78 2237.01,3170.34C2241.49,3167.91 2246.47,3166.69 2251.98,3166.69C2260.47,3166.69 2267.44,3169.46 2272.87,3175C2278.3,3180.5 2281.02,3187.46 2281.02,3195.89C2281.02,3204.39 2278.27,3211.44 2272.76,3217.05C2267.3,3222.62 2260.4,3225.41 2252.08,3225.41C2246.93,3225.41 2242.01,3224.24 2237.32,3221.92C2232.67,3219.59 2229.12,3216.19 2226.69,3211.71C2224.26,3207.19 2223.04,3201.71 2223.04,3195.26ZM2238.28,3196.05C2238.28,3201.62 2239.6,3205.89 2242.24,3208.85C2244.89,3211.81 2248.15,3213.29 2252.03,3213.29C2255.91,3213.29 2259.15,3211.81 2261.76,3208.85C2264.41,3205.89 2265.73,3201.59 2265.73,3195.94C2265.73,3190.44 2264.41,3186.21 2261.76,3183.25C2259.15,3180.29 2255.91,3178.81 2252.03,3178.81C2248.15,3178.81 2244.89,3180.29 2242.24,3183.25C2239.6,3186.21 2238.28,3190.48 2238.28,3196.05Z" style="fill-rule:nonzero;"/>
                    <path d="M2287.42,3208.11L2302.33,3205.84C2302.97,3208.73 2304.26,3210.93 2306.2,3212.45C2308.14,3213.93 2310.85,3214.67 2314.34,3214.67C2318.19,3214.67 2321.08,3213.96 2323.02,3212.55C2324.32,3211.57 2324.97,3210.24 2324.97,3208.59C2324.97,3207.46 2324.62,3206.52 2323.92,3205.78C2323.18,3205.08 2321.52,3204.43 2318.94,3203.83C2306.95,3201.18 2299.35,3198.76 2296.14,3196.58C2291.7,3193.55 2289.48,3189.33 2289.48,3183.94C2289.48,3179.07 2291.4,3174.98 2295.25,3171.66C2299.09,3168.35 2305.05,3166.69 2313.12,3166.69C2320.81,3166.69 2326.53,3167.94 2330.26,3170.45C2334,3172.95 2336.58,3176.65 2337.99,3181.56L2323.97,3184.15C2323.37,3181.96 2322.22,3180.29 2320.53,3179.12C2318.87,3177.96 2316.49,3177.38 2313.39,3177.38C2309.47,3177.38 2306.67,3177.92 2304.98,3179.02C2303.85,3179.79 2303.29,3180.8 2303.29,3182.03C2303.29,3183.09 2303.78,3183.99 2304.77,3184.73C2306.11,3185.72 2310.73,3187.11 2318.63,3188.91C2326.56,3190.71 2332.1,3192.91 2335.24,3195.52C2338.34,3198.17 2339.89,3201.85 2339.89,3206.58C2339.89,3211.72 2337.74,3216.15 2333.44,3219.85C2329.14,3223.56 2322.77,3225.41 2314.34,3225.41C2306.69,3225.41 2300.62,3223.86 2296.14,3220.75C2291.7,3217.65 2288.79,3213.43 2287.42,3208.11Z" style="fill-rule:nonzero;"/>
                    <path d="M2352.9,3160.34L2352.9,3146.59L2367.77,3146.59L2367.77,3160.34L2352.9,3160.34ZM2352.9,3224.14L2352.9,3167.96L2367.77,3167.96L2367.77,3224.14L2352.9,3224.14Z" style="fill-rule:nonzero;"/>
                    <path d="M2408.76,3167.96L2408.76,3179.81L2398.61,3179.81L2398.61,3202.45C2398.61,3207.03 2398.7,3209.72 2398.87,3210.49C2399.08,3211.23 2399.52,3211.85 2400.19,3212.34C2400.9,3212.84 2401.75,3213.08 2402.73,3213.08C2404.11,3213.08 2406.1,3212.61 2408.71,3211.66L2409.98,3223.19C2406.52,3224.67 2402.61,3225.41 2398.24,3225.41C2395.56,3225.41 2393.14,3224.97 2390.99,3224.09C2388.84,3223.17 2387.25,3222.01 2386.23,3220.59C2385.24,3219.15 2384.55,3217.21 2384.17,3214.78C2383.85,3213.05 2383.69,3209.56 2383.69,3204.3L2383.69,3179.81L2376.87,3179.81L2376.87,3167.96L2383.69,3167.96L2383.69,3156.8L2398.61,3148.12L2398.61,3167.96L2408.76,3167.96Z" style="fill-rule:nonzero;"/>
                    <path d="M2415.64,3195.26C2415.64,3190.32 2416.86,3185.54 2419.29,3180.92C2421.72,3176.3 2425.16,3172.78 2429.61,3170.34C2434.08,3167.91 2439.07,3166.69 2444.58,3166.69C2453.07,3166.69 2460.04,3169.46 2465.47,3175C2470.9,3180.5 2473.62,3187.46 2473.62,3195.89C2473.62,3204.39 2470.87,3211.44 2465.36,3217.05C2459.9,3222.62 2453,3225.41 2444.68,3225.41C2439.53,3225.41 2434.61,3224.24 2429.92,3221.92C2425.27,3219.59 2421.72,3216.19 2419.29,3211.71C2416.86,3207.19 2415.64,3201.71 2415.64,3195.26ZM2430.87,3196.05C2430.87,3201.62 2432.2,3205.89 2434.84,3208.85C2437.49,3211.81 2440.75,3213.29 2444.63,3213.29C2448.51,3213.29 2451.75,3211.81 2454.36,3208.85C2457.01,3205.89 2458.33,3201.59 2458.33,3195.94C2458.33,3190.44 2457.01,3186.21 2454.36,3183.25C2451.75,3180.29 2448.51,3178.81 2444.63,3178.81C2440.75,3178.81 2437.49,3180.29 2434.84,3183.25C2432.2,3186.21 2430.87,3190.48 2430.87,3196.05Z" style="fill-rule:nonzero;"/>
                    <path d="M2499.48,3224.14L2484.62,3224.14L2484.62,3167.96L2498.42,3167.96L2498.42,3175.95C2500.79,3172.18 2502.9,3169.69 2504.77,3168.49C2506.68,3167.29 2508.83,3166.69 2511.22,3166.69C2514.61,3166.69 2517.87,3167.63 2521.01,3169.5L2516.41,3182.45C2513.91,3180.83 2511.58,3180.02 2509.43,3180.02C2507.35,3180.02 2505.58,3180.6 2504.14,3181.77C2502.69,3182.9 2501.55,3184.96 2500.7,3187.96C2499.89,3190.95 2499.48,3197.23 2499.48,3206.79L2499.48,3224.14Z" style="fill-rule:nonzero;"/>
                    <path d="M2520.38,3167.96L2536.19,3167.96L2549.63,3207.85L2562.75,3167.96L2578.14,3167.96L2558.3,3222.02L2554.76,3231.81C2553.45,3235.09 2552.2,3237.59 2551,3239.32C2549.84,3241.05 2548.48,3242.44 2546.93,3243.5C2545.41,3244.59 2543.53,3245.44 2541.27,3246.04C2539.05,3246.64 2536.53,3246.94 2533.71,3246.94C2530.85,3246.94 2528.05,3246.64 2525.3,3246.04L2523.97,3234.4C2526.3,3234.86 2528.4,3235.09 2530.27,3235.09C2533.72,3235.09 2536.28,3234.07 2537.94,3232.02C2539.6,3230.01 2540.87,3227.44 2541.75,3224.3L2520.38,3167.96Z" style="fill-rule:nonzero;"/>
                </g>
            </g>
        </g>
    </g>
</svg>
