<?xml version="1.0" encoding="UTF-8" standalone="no"?><!DOCTYPE svg PUBLIC "-//W3C//DTD SVG 1.1//EN" "http://www.w3.org/Graphics/SVG/1.1/DTD/svg11.dtd"><svg width="100%" height="100%" viewBox="0 0 452 414" version="1.1" xmlns="http://www.w3.org/2000/svg" xmlns:xlink="http://www.w3.org/1999/xlink" xml:space="preserve" xmlns:serif="http://www.serif.com/" style="fill-rule:evenodd;clip-rule:evenodd;stroke-linejoin:round;stroke-miterlimit:2;"><g id="Cype"><path d="M0,85.44l0,247.294c0,76.019 73,92.135 122.584,73.692c92.028,-34.231 217.336,-95.981 274.22,-133.921c72.71,-48.496 73.336,-79.92 -0,-126.127c-52.071,-32.809 -183.486,-107.058 -260.757,-135.339c-68.083,-24.918 -136.047,-10.731 -136.047,74.401Z" style="fill:#b52925;"/><g><path d="M117.179,182.732l-0,-25.831l-50.211,0c-9.03,0 -20.858,10.126 -20.858,19.156l0,58.046c0,9.714 12.595,20.607 22.309,20.607l47.889,0l-0,-26.701l-44.406,-0l0,-44.696l45.277,-0.581Z" style="fill:#fff;"/><path d="M209.121,294.227l-0,-136.259l50.869,-0c9.501,-0 20.155,10.654 20.155,20.155l0,55.426c0,9.568 -11.801,20.295 -20.295,20.295l-26.453,0l-0,40.191l-24.276,0.192Z" style="fill:#fff;"/><path d="M126.612,156.711l25.154,-0l-0,72.074l21.041,0l0,-71.107l27.331,0l-0,117.061c-0,7.391 -12.631,18.744 -18.744,18.744l-27.935,0l-0,-23.339l21.041,-0l0,-15.721l-26.362,-0c-8.538,-0 -21.066,-9.815 -21.066,-19.349c0,-17.446 -0.46,-78.363 -0.46,-78.363Z" style="fill:#fff;"/><path d="M234.924,184.169l0,44.574l15.049,0l4.013,-4.013l0,-35.688l-4.873,-4.873l-14.189,0Z" style="fill:#b52925;"/><path d="M317.154,216.746l25.082,0c7.739,0 17.804,-10.219 17.804,-17.803l-0,-24.075c-0,-7.376 -8.908,-16.851 -16.852,-16.851l-30.96,-0c-9.237,-0 -20.519,10.846 -20.519,20.519l-0,56.35c-0,9.903 11.105,21.009 21.008,21.009l48.107,-0l-0,-26.608l-43.608,0l-0.062,-12.541Z" style="fill:#fff;"/><path d="M315.808,183.284l0,9.866l18.769,-0l-0,-9.703l-18.769,-0.163Z" style="fill:#b52925;"/></g></g></svg>