<?xml version="1.0" encoding="UTF-8" standalone="no"?>
<!DOCTYPE svg PUBLIC "-//W3C//DTD SVG 1.1//EN" "http://www.w3.org/Graphics/SVG/1.1/DTD/svg11.dtd">
<svg width="100%" height="100%" viewBox="0 0 424 414" version="1.1" xmlns="http://www.w3.org/2000/svg" xmlns:xlink="http://www.w3.org/1999/xlink" xml:space="preserve" xmlns:serif="http://www.serif.com/" style="fill-rule:evenodd;clip-rule:evenodd;stroke-linejoin:round;stroke-miterlimit:2;">
    <g transform="matrix(1,0,0,1,-983.707,-2967.03)">
        <g transform="matrix(1,0,0,1,778.164,3002.84)">
            <g transform="matrix(3.5094,0,0,3.5094,192.867,-53.7187)">
                <path d="M64,5.103C30.653,5.103 3.612,32.138 3.612,65.491C3.612,92.173 20.915,114.808 44.909,122.794C47.926,123.354 49.034,121.484 49.034,119.889C49.034,118.449 48.978,113.692 48.952,108.646C32.152,112.299 28.607,101.521 28.607,101.521C25.86,94.541 21.902,92.685 21.902,92.685C16.422,88.937 22.315,89.015 22.315,89.015C28.378,89.44 31.572,95.238 31.572,95.238C36.958,104.468 45.699,101.8 49.145,100.258C49.687,96.355 51.252,93.69 52.979,92.182C39.566,90.657 25.465,85.478 25.465,62.339C25.465,55.746 27.825,50.359 31.688,46.129C31.06,44.609 28.993,38.467 32.272,30.149C32.272,30.149 37.342,28.526 48.882,36.339C53.7,35 58.867,34.327 64,34.304C69.13,34.327 74.3,34.998 79.127,36.337C90.653,28.524 95.717,30.147 95.717,30.147C99.004,38.464 96.937,44.607 96.31,46.127C100.182,50.357 102.525,55.744 102.525,62.337C102.525,85.531 88.398,90.637 74.951,92.133C77.118,94.007 79.048,97.683 79.048,103.316C79.048,111.396 78.978,117.899 78.978,119.888C78.978,121.495 80.066,123.378 83.126,122.785C107.106,114.791 124.389,92.163 124.389,65.491C124.388,32.14 97.35,5.104 64,5.104L64,5.103Z"/>
            </g>
        </g>
    </g>
</svg>
