<?xml version="1.0" encoding="UTF-8" standalone="no"?><!DOCTYPE svg PUBLIC "-//W3C//DTD SVG 1.1//EN" "http://www.w3.org/Graphics/SVG/1.1/DTD/svg11.dtd"><svg width="100%" height="100%" viewBox="0 0 414 414" version="1.1" xmlns="http://www.w3.org/2000/svg" xmlns:xlink="http://www.w3.org/1999/xlink" xml:space="preserve" xmlns:serif="http://www.serif.com/" style="fill-rule:evenodd;clip-rule:evenodd;stroke-linejoin:round;stroke-miterlimit:2;"><g id="javascript"><rect x="0" y="0" width="413.386" height="413.386" style="fill:#f7df1e;"/><path d="M277.69,322.959c8.327,13.596 19.16,23.59 38.32,23.59c16.096,-0 26.378,-8.045 26.378,-19.161c0,-13.32 -10.564,-18.038 -28.28,-25.787l-9.712,-4.167c-28.031,-11.942 -46.653,-26.903 -46.653,-58.53c-0,-29.134 22.198,-51.312 56.89,-51.312c24.698,-0 42.454,8.596 55.249,31.102l-30.249,19.423c-6.661,-11.942 -13.846,-16.647 -25,-16.647c-11.378,-0 -18.59,7.218 -18.59,16.647c0,11.653 7.218,16.371 23.885,23.589l9.711,4.16c33.005,14.154 51.641,28.583 51.641,61.024c-0,34.974 -27.474,54.134 -64.371,54.134c-36.076,-0 -59.383,-17.192 -70.787,-39.725l31.568,-18.34Zm-137.224,3.366c6.102,10.827 11.653,19.981 25,19.981c12.762,-0 20.814,-4.994 20.814,-24.41l-0,-132.086l38.845,-0l-0,132.611c-0,40.223 -23.583,58.53 -58.006,58.53c-31.102,0 -49.114,-16.095 -58.274,-35.482l31.621,-19.144Z" style="fill-rule:nonzero;"/></g></svg>